<svg xmlns="http://www.w3.org/2000/svg" xmlns:xlink="http://www.w3.org/1999/xlink" viewBox="0 0 1200 800"><defs><style>.cls-1{fill:none;}.cls-2{isolation:isolate;}.cls-3{clip-path:url(#clip-path);}.cls-4{opacity:0.7;}.cls-5{opacity:0.15;mix-blend-mode:multiply;}.cls-6{fill:#fff;}.cls-7{fill:#2435c9;}.cls-8{fill:#bdc1e5;}</style><clipPath id="clip-path"><rect class="cls-1" x="198" y="-199.58203" width="800" height="1200" transform="translate(195.28455 996.87317) rotate(-89.77959)"/></clipPath></defs><g class="cls-2"><g id="Background"><g class="cls-3"><g class="cls-4"><image class="cls-5" width="888" height="1308" transform="translate(886.76 593.08) scale(0.24)" xlink:href="bg-trans1.png"/><path class="cls-6" d="M1073.38391,824.81256a34.98247,34.98247,0,0,0,10.45879-24.308,33.09671,33.09671,0,0,0-9.6108-24.115l-24.20973-24.39671-4.89341,4.856,24.20972,24.39672a26.53027,26.53027,0,0,1,7.70511,19.32708,28.03671,28.03671,0,0,1-8.3826,19.4804c-10.89317,10.80967-28.30877,10.98448-38.82239.38965l-6.85039-6.9033a33.0914,33.0914,0,0,0-24.04019-9.796,35.04855,35.04855,0,0,0-24.39734,10.281c-13.59078,13.48652-13.976,35.2126-.85762,48.43236L1001.972,890.954l4.89351-4.85592-28.27888-28.49729c-10.51372-10.59483-10.20493-28.00857.687-38.817a28.10526,28.10526,0,0,1,19.55855-8.24212,26.51611,26.51611,0,0,1,19.26263,7.85366l6.8504,6.90331C1038.06353,838.51839,1059.79193,838.30027,1073.38391,824.81256Z"/><path class="cls-7" d="M893.26363,677.59l79.19269,79.80433c20.97265,21.13464,55.58114,20.78737,77.31086-.7758,21.71736-21.55091,22.33068-56.15541,1.358-77.29014L971.93243,599.524a15.263,15.263,0,0,0-21.57214.22862l-56.70208,56.26749A15.26325,15.26325,0,0,0,893.26363,677.59Z"/><path class="cls-8" d="M893.26363,677.59l36.50047,36.78228,78.6688-78.06584L971.93243,599.524a15.263,15.263,0,0,0-21.57214.22862l-56.70208,56.26749A15.26325,15.26325,0,0,0,893.26363,677.59Z"/><path class="cls-6" d="M893.27,677.59359l79.1886,79.80022c20.96678,21.12872,55.57377,20.78144,77.29726-.77565h0c21.72359-21.55709,22.33711-56.16039,1.37043-77.2891l-79.1887-79.80022a15.2613,15.2613,0,0,0-21.577.2165l-56.7081,56.27356A15.26066,15.26066,0,0,0,893.27,677.59359Zm4.89341-4.85591a8.4694,8.4694,0,0,1,.212-11.95937l56.7082-56.27357a8.46928,8.46928,0,0,1,11.96055-.12l79.1887,79.80032c18.32879,18.47035,17.79019,48.8291-1.19994,67.67369-18.99074,18.84518-49.35213,19.14949-67.68091.67914Z"/><polygon class="cls-6" points="940.187 689.848 954.663 675.483 940.692 661.404 955.384 646.825 969.355 660.904 983.831 646.539 998.011 660.829 983.536 675.194 997.507 689.273 982.814 703.852 968.843 689.774 954.368 704.138 940.187 689.848"/></g><g class="cls-4"><image class="cls-5" width="880" height="804" transform="translate(929.24 260.44) scale(0.24)" xlink:href="bg-trans2.png"/><path class="cls-7" d="M934.53857,333.5112a93.61217,93.61217,0,0,0,6.64291,13.76316c.952,1.65427,2.01017,3.44216,3.20094,5.32365,8.44148,13.35757,23.18466,32.23693,48.40513,54.33821l34.534,30.25718,34.75242-29.99064c23.17265-19.9849,37.58948-37.35437,46.4119-50.33923q1.90771-2.80818,3.46815-5.3114a102.47468,102.47468,0,0,0,8.93221-17.32406,52.79608,52.79608,0,0,0-92.98229-48.42625,52.803,52.803,0,0,0-93.36533,47.70938Z"/><path class="cls-6" d="M934.53257,333.51188a93.61627,93.61627,0,0,0,6.6429,13.76315c.952,1.65438,2.01018,3.44216,3.20085,5.32366,8.44158,13.35757,23.18476,32.23693,48.40522,54.33821l34.534,30.25717,34.75243-29.99063c23.17275-19.98491,37.58928-37.35448,46.41179-50.33933l.00031-.0007.0058,0q1.90771-2.80818,3.46795-5.3113l-.0055,0a102.48474,102.48474,0,0,0,8.93181-17.32337,52.79583,52.79583,0,0,0-92.98219-48.42625,52.803,52.803,0,0,0-93.36533,47.70939Zm16.20607,19.09228,21.38508.02067,7.51293,19.47744L987.07,336.0961l14.92366,62.01,12.70215-76.9327,9.04892,35.36407,78.27482.30112c-10.79067,15.2054-25.38229,30.78088-43.42395,46.33129l-31.253,26.96917L996.29808,402.9302C972.66765,382.22814,958.66284,364.55313,950.73864,352.60416Zm-9.7629-57.23208a47.48662,47.48662,0,0,1,82.50452-6.60476l4.38112,6.5262,4.44451-6.49225a47.47232,47.47232,0,0,1,83.60291,43.54464,97.85874,97.85874,0,0,1-8.47583,16.394c-.56278.90264-1.16408,1.83764-1.78744,2.788l-77.76692-.29917-14.29467-55.9507-12.56557,76.02772-14.33363-59.59818-8.6,41.57933-2.31949-5.98587-28.40133-.02186c-.50179-.83364-1.01942-1.71-1.57247-2.662a89.34459,89.34459,0,0,1-6.25993-12.94977A47.17464,47.17464,0,0,1,940.97574,295.37208Z"/></g><g class="cls-4"><image class="cls-5" width="932" height="937" transform="translate(1072.52 99.16) scale(0.24)" xlink:href="bg-trans3.png"/><rect class="cls-8" x="1152.35604" y="132.50786" width="59.41677" height="153.40696" rx="11.58227" transform="translate(195.64485 893.33276) rotate(-44.77959)"/><rect class="cls-8" x="1070.58345" y="120.25706" width="59.41673" height="13.10025" transform="translate(229.96017 811.82176) rotate(-44.77959)"/><polygon class="cls-7" points="1116.585 166.129 1114.525 156.639 1097.161 139.141 1112.65 123.772 1130.013 141.269 1139.487 143.402 1116.585 166.129"/><path class="cls-7" d="M1160.96912,230.13679l45.8742,46.22852a11.58646,11.58646,0,0,0,16.37968.063l25.73282-25.5355a11.5793,11.5793,0,0,0,.063-16.37968l-45.87431-46.22861Z"/><path class="cls-6" d="M1115.1062,183.91282l73.54753,74.11508-.0007.0007,3.94892,3.97942.0007-.0007,14.24449,14.3545a11.58219,11.58219,0,0,0,16.37948.063l10.8767-10.79334,41.12189,41.4395a2.80311,2.80311,0,0,0,3.97942-3.94892l-41.12189-41.4395,10.8767-10.79313a11.5831,11.5831,0,0,0,.063-16.37968l-91.74094-92.449a11.58219,11.58219,0,0,0-16.37948-.063l-25.73282,25.5354A11.58327,11.58327,0,0,0,1115.1062,183.91282Zm2.24629-8.18122a5.93717,5.93717,0,0,1,1.76634-4.21874l25.73282-25.53519a5.9753,5.9753,0,0,1,8.45044.0325l91.74024,92.4488a5.98244,5.98244,0,0,1-.03251,8.45064l-25.732,25.5353a5.97627,5.97627,0,0,1-8.45124-.03251l-4.90064-4.93839,17.10482-16.97322-3.94892-3.97942L1201.977,263.49459l-5.39423-5.43659,6.5613-6.51131-3.94892-3.97942-6.5613,6.51131-5.34791-5.38851,17.10482-16.97333-3.94892-3.97932L1183.337,244.71065l-6.23019-6.27822,6.5627-6.512-3.94882-3.97942-6.5627,6.512-6.23159-6.27962,17.10482-16.97332-3.94892-3.97942L1162.9776,224.194l-5.34662-5.3878,6.5627-6.512-3.94882-3.97942-6.5628,6.512-6.2546-6.303,17.10472-16.97333-3.94882-3.97932-17.10482,16.97323-5.3234-5.36452,6.5627-6.5119-3.94892-3.97942-6.5627,6.512-6.27921-6.3278,17.10483-16.97323-3.94893-3.97942-17.10482,16.97333-4.89177-4.92976A5.93667,5.93667,0,0,1,1117.35249,175.7316Z"/></g><g class="cls-4"><image class="cls-5" width="932" height="938" transform="translate(770.6 703) scale(0.24)" xlink:href="bg-trans4.png"/><path class="cls-8" d="M861.97946,736.49594h36.2522a11.58225,11.58225,0,0,1,11.58225,11.58225V878.3206a11.58227,11.58227,0,0,1-11.58227,11.58227h-36.2522a11.58227,11.58227,0,0,1-11.58227-11.58227V748.07823a11.58229,11.58229,0,0,1,11.58229-11.58229Z" transform="translate(-317.41492 855.90509) rotate(-44.7797)"/><rect class="cls-8" x="768.62462" y="724.24512" width="59.41666" height="13.10025" transform="translate(-283.09963 774.39307) rotate(-44.77966)"/><polygon class="cls-7" points="814.626 770.117 812.566 760.627 795.203 743.129 810.691 727.76 828.054 745.257 837.528 747.39 814.626 770.117"/><path class="cls-7" d="M859.01021,834.12486l45.8743,46.22851a11.58632,11.58632,0,0,0,16.37958.063l25.73282-25.53549a11.57929,11.57929,0,0,0,.063-16.37968l-45.8742-46.22862Z"/><path class="cls-6" d="M813.14738,787.90088,886.69492,862.016l-.00071.0007,3.94882,3.97942.00071-.0007,14.24458,14.35451a11.58219,11.58219,0,0,0,16.37948.063l10.8767-10.79334,41.12179,41.4395a2.80311,2.80311,0,1,0,3.97942-3.94892l-41.12189-41.4395,10.8767-10.79314a11.58309,11.58309,0,0,0,.063-16.37968l-91.74093-92.449a11.58219,11.58219,0,0,0-16.37948-.063l-25.73272,25.5354A11.58309,11.58309,0,0,0,813.14738,787.90088Zm2.24629-8.18122a5.937,5.937,0,0,1,1.76625-4.21873l25.73282-25.5352a5.97542,5.97542,0,0,1,8.45053.03251l91.74024,92.4488a5.98243,5.98243,0,0,1-.03251,8.45064L917.31888,876.433a5.97626,5.97626,0,0,1-8.45124-.03252l-4.90063-4.93838,17.10482-16.97323-3.94892-3.97942-17.10483,16.97323-5.39422-5.4366,6.5613-6.5113-3.94883-3.97942-6.56139,6.5113-5.34791-5.38851,17.10482-16.97332-3.94892-3.97932-17.10482,16.97322-6.2301-6.27821,6.5627-6.512-3.94892-3.97943-6.5627,6.512-6.23149-6.27962,17.10482-16.97333-3.94892-3.97942L861.01868,828.182l-5.34651-5.38781,6.5627-6.512-3.94892-3.97942-6.5627,6.512-6.2547-6.303,17.10482-16.97332-3.94892-3.97932-17.10482,16.97322-5.32341-5.36452,6.5628-6.5119-3.94892-3.97942-6.5627,6.512-6.2793-6.3278,17.10482-16.97322L839.124,771.9081l-17.10472,16.97332-4.89187-4.92975A5.93663,5.93663,0,0,1,815.39367,779.71966Z"/></g><g class="cls-4"><image class="cls-5" width="932" height="937" transform="translate(1085 622.12) scale(0.24)" xlink:href="bg-trans5.png"/><path class="cls-8" d="M1166.87616,646.1319h36.25223a11.5822,11.5822,0,0,1,11.5822,11.5822V787.95652a11.58227,11.58227,0,0,1-11.58227,11.58227h-36.25223a11.5822,11.5822,0,0,1-11.5822-11.5822V657.71416a11.58227,11.58227,0,0,1,11.58227-11.58227Z" transform="translate(-165.28984 1044.44463) rotate(-44.77959)"/><path class="cls-7" d="M1206.09759,701.90989l-45.8743-46.22852a11.58644,11.58644,0,0,0-16.37968-.063l-25.73272,25.5356a11.57909,11.57909,0,0,0-.063,16.37958l45.87421,46.22861Z"/><path class="cls-6" d="M1251.96041,748.13386l-73.54753-74.11508.0007-.0007-3.94892-3.97942-.0007.0007-14.24449-14.3544a11.58194,11.58194,0,0,0-16.37947-.063l-10.87671,10.79333-41.12179-41.43959a2.80311,2.80311,0,0,0-3.97942,3.94892l41.12179,41.4395-10.8767,10.79313a11.58329,11.58329,0,0,0-.063,16.37968l91.74094,92.449a11.5822,11.5822,0,0,0,16.37948.063l25.73282-25.5354A11.58309,11.58309,0,0,0,1251.96041,748.13386Zm-2.24629,8.18122a5.93673,5.93673,0,0,1-1.76634,4.21873l-25.73272,25.5352a5.97517,5.97517,0,0,1-8.45054-.03251l-91.74024-92.4488a5.98243,5.98243,0,0,1,.03251-8.45063l25.73212-25.5353a5.97613,5.97613,0,0,1,8.45114.03251l4.90074,4.93839L1144.036,681.546l3.94882,3.97932,17.10482-16.97322,5.39433,5.43659-6.5614,6.51131,3.94892,3.97942,6.5614-6.51131,5.34791,5.38851L1162.676,700.32994l3.94892,3.97932,17.10472-16.97323,6.23019,6.27822-6.5627,6.512,3.94893,3.97942,6.56269-6.512,6.23149,6.27961-17.10482,16.97333,3.94892,3.97942,17.10482-16.97333,5.34652,5.38791-6.5627,6.5119,3.94892,3.97942,6.5627-6.512,6.2547,6.303-17.10482,16.97333,3.94892,3.97942,17.10482-16.97333,5.3233,5.36452-6.5627,6.512,3.94892,3.97932,6.5627-6.5119,6.27921,6.3277-17.10472,16.97323,3.94882,3.97942,17.10482-16.97323,4.89177,4.92976A5.93586,5.93586,0,0,1,1249.71412,756.31508Z"/></g><g class="cls-4"><image class="cls-5" width="1077" height="1510" transform="translate(888.92 -104.36) scale(0.24)" xlink:href="bg-trans6.png"/><path class="cls-7" d="M1059.29211,52.217c-30.17766,15.39763-68.7009,29.08533-90.36438,7.25464-21.67284-21.84024-7.67979-60.24759,7.94966-90.30589l7.36225,13.64862s-13.51338,28.27593,9.78418,51.75352c23.29756,23.4775,51.67661,10.18207,51.67661,10.18207Z"/><path class="cls-6" d="M966.51925,61.85422C935.56173,30.6576,971.18471-29.213,988.30392-57.98617c9.09306-15.28283,27.6457-41.32955,49.74391-44.04666,9.94569-1.22455,19.27493,2.47457,27.72742,10.99234l.00239.00241L1060.97-86.26734l-.00239-.0024c-6.99772-7.05178-14.224-10.0097-22.09268-9.04086-19.94749,2.45358-37.94105,29.34086-44.751,40.78795-14.97966,25.17536-50.05882,84.13375-22.7971,111.60613,27.263,27.47358,86.48954-7.151,111.77951-21.93656,11.49914-6.72171,38.52406-24.50778,41.13094-44.4359,1.02935-7.861-1.87348-15.11152-8.873-22.1639l4.80769-4.77074c8.45419,8.51828,12.08142,17.87571,10.781,27.81348-1.239,9.4761-8.65968,28.4947-44.42808,49.40355C1057.621,57.89075,997.478,93.052,966.51925,61.85422Z"/><path class="cls-6" d="M900.71748,169.57268a33.48407,33.48407,0,0,1,.19094-47.37441l65.63274-65.1297,4.77074,4.80758-65.63263,65.1297A26.72648,26.72648,0,1,0,943.33048,164.948l48.31018-47.94a33.50526,33.50526,0,1,1,47.201,47.56552l-57.95125,57.5071-4.77074-4.80769,57.95115-57.507a26.73228,26.73228,0,1,0-37.65939-37.95036l-48.31017,47.94A33.54346,33.54346,0,0,1,900.71748,169.57268Z"/><circle class="cls-7" cx="978.50481" cy="219.67669" r="22.33609"/><circle class="cls-8" cx="978.50481" cy="219.67669" r="11.21401"/></g><g class="cls-4"><image class="cls-5" width="794" height="722" transform="translate(1061.72 427.48) scale(0.24)" xlink:href="bg-trans7.png"/><path class="cls-7" d="M1091.49331,487.38323l43.28442,43.61873,48.17907-47.80991-43.28432-43.61863a33.93748,33.93748,0,0,0-48.17917,47.80981Z"/><path class="cls-8" d="M1134.77773,531.002l43.27576,43.61a33.93748,33.93748,0,1,0,48.17907-47.80991l-43.27576-43.61Z"/><path class="cls-6" d="M1134.77773,531.00176l43.27566,43.6102a33.93748,33.93748,0,1,0,48.17917-47.80981l-43.276-43.61Zm6.90955.02658L1182.93,490.1015l39.83458,40.14193a29.05184,29.05184,0,1,1-41.24325,40.92715Z"/><path class="cls-8" d="M1077.49081,578.98624a30.94135,30.94135,0,0,0,43.06433-42.73865Z"/><path class="cls-8" d="M1068.91251,570.34168l43.06423-42.73876a30.94135,30.94135,0,0,0-43.06423,42.73876Z"/><path class="cls-7" d="M1068.91251,570.34168c.03139.05442.06738.10886.10347.1633a31.15642,31.15642,0,0,0,8.30785,8.372c.05416.03641.10831.07741.167.10924l43.06433-42.73865c-.03149-.05442-.06748-.10886-.10347-.1633a30.392,30.392,0,0,0-3.75649-4.585,30.83007,30.83007,0,0,0-4.55146-3.78713c-.05416-.03641-.10831-.07732-.167-.10925Z"/><polygon class="cls-6" points="1094.847 522.356 1094.847 522.356 1094.847 522.356 1094.847 522.356"/><path class="cls-6" d="M1072.9411,531.333a30.83148,30.83148,0,0,1,21.90589-8.9771l-.01879,4.88556a26.32173,26.32173,0,1,0,.0015,0l.01729-4.88557.0018-.00009a30.93944,30.93944,0,1,1-21.90769,8.97719Z"/></g></g></g></g></svg>