<svg xmlns="http://www.w3.org/2000/svg" xmlns:xlink="http://www.w3.org/1999/xlink" viewBox="0 0 1200 675"><defs><style>.cls-1{fill:none;}.cls-2{isolation:isolate;}.cls-3{clip-path:url(#clip-path);}.cls-4{fill:#e1e4ef;}.cls-5{opacity:0.4;fill:url(#linear-gradient);}.cls-5,.cls-7{mix-blend-mode:multiply;}.cls-6{opacity:0.7;}.cls-7{opacity:0.15;}.cls-8{fill:#fff;}.cls-9{fill:#4058c9;}.cls-10{fill:#bdc4e5;}</style><clipPath id="clip-path"><rect class="cls-1" x="262.5" y="-262.5" width="675" height="1200" transform="translate(937.5 -262.5) rotate(90)"/></clipPath><linearGradient id="linear-gradient" x1="818.44917" y1="867.80602" x2="-169.2909" y2="-731.13205" gradientTransform="matrix(1, 0, 0, -1, 285.534, 389.466)" gradientUnits="userSpaceOnUse"><stop offset="0.02686" stop-color="#4058c9"/><stop offset="0.06498" stop-color="#6074d2"/><stop offset="0.11762" stop-color="#8594dd"/><stop offset="0.1765" stop-color="#a6b1e6"/><stop offset="0.24124" stop-color="#c2caee"/><stop offset="0.31384" stop-color="#d9ddf4"/><stop offset="0.39783" stop-color="#eaedf9"/><stop offset="0.50035" stop-color="#f6f7fc"/><stop offset="0.64118" stop-color="#fdfdfe"/><stop offset="1" stop-color="#fff"/></linearGradient></defs><g class="cls-2"><g id="Background"><g class="cls-3"><rect class="cls-4" x="249.317" y="-272.5" width="701.366" height="1220" transform="translate(937.5 -262.5) rotate(90)"/><rect class="cls-5" x="249.317" y="-272.5" width="701.366" height="1220" transform="translate(937.5 -262.5) rotate(90)"/><g class="cls-6"><image class="cls-7" width="890" height="1307" transform="translate(942.6 340.98) scale(0.24)" xlink:href="bg1.png"/><path class="cls-8" d="M1129.8007,572.235a34.98258,34.98258,0,0,0,10.3652-24.3481,33.09664,33.09664,0,0,0-9.7035-24.0777l-24.3034-24.3034-4.8747,4.8747,24.3034,24.3034a26.53146,26.53146,0,0,1,7.7794,19.2974,28.03653,28.03653,0,0,1-8.3077,19.5125c-10.8514,10.8515-28.2662,11.0932-38.8206.5389l-6.8768-6.8768a33.09094,33.09094,0,0,0-24.0777-9.7035,35.04867,35.04867,0,0,0-24.3577,10.3747c-13.5387,13.5388-13.8404,35.2662-.6712,48.4354l28.3883,28.3883,4.8747-4.8748-28.3883-28.3883c-10.5543-10.5543-10.3125-27.9691.5378-38.8194a28.1052,28.1052,0,0,1,19.5267-8.3172,26.51641,26.51641,0,0,1,19.2927,7.7795l6.8768,6.8769C1094.5333,586.0766,1116.2607,585.775,1129.8007,572.235Z"/><path class="cls-9" d="M949.1154,425.7064l79.4991,79.4991c21.0538,21.0539,55.6606,20.5735,77.3073-1.0732,21.6343-21.6342,22.1145-56.2409,1.0606-77.2947l-79.4991-79.4991a15.26285,15.26285,0,0,0-21.5711.3116l-56.4853,56.4852A15.26312,15.26312,0,0,0,949.1154,425.7064Z"/><path class="cls-10" d="M949.1154,425.7064l36.6416,36.6417,78.368-78.368-36.6417-36.6416a15.26285,15.26285,0,0,0-21.5711.3116l-56.4853,56.4852A15.26312,15.26312,0,0,0,949.1154,425.7064Z"/><path class="cls-8" d="M949.1217,425.71l79.4951,79.4951c21.0478,21.0478,55.6532,20.5674,77.2937-1.0731h0c21.6405-21.6404,22.1209-56.2458,1.0731-77.2937l-79.4951-79.4951a15.26122,15.26122,0,0,0-21.576.2996L949.4213,404.134A15.26068,15.26068,0,0,0,949.1217,425.71Zm4.8747-4.8747a8.46918,8.46918,0,0,1,.1661-11.96l56.4912-56.4913a8.46939,8.46939,0,0,1,11.9601-.166l79.495,79.495c18.3998,18.3997,17.978,48.7603-.9395,67.6778-18.9181,18.9181-49.2781,19.3393-67.6778.9396Z"/><polygon class="cls-8" points="996.086 437.784 1010.506 423.364 996.481 409.339 1011.117 394.702 1025.142 408.728 1039.562 394.308 1053.798 408.543 1039.378 422.963 1053.403 436.988 1038.767 451.624 1024.741 437.599 1010.321 452.019 996.086 437.784"/></g><g class="cls-6"><image class="cls-7" width="880" height="803" transform="translate(941.88 92.82) scale(0.24)" xlink:href="bg2.png"/><path class="cls-9" d="M947.2984,166.2074a93.61245,93.61245,0,0,0,6.6957,13.7376c.9584,1.6506,2.0234,3.4344,3.2215,5.3113,8.4928,13.325,23.3084,32.1474,48.6138,54.1515l34.6501,30.1241,34.6367-30.1241c23.0957-20.0738,37.4455-37.4986,46.2179-50.5174q1.8969-2.8155,3.4477-5.3246a102.46336,102.46336,0,0,0,8.8655-17.3584,52.796,52.796,0,0,0-93.1678-48.0681,52.803,52.803,0,0,0-93.1811,48.0681Z"/><path class="cls-8" d="M947.2923,166.2081a93.6271,93.6271,0,0,0,6.6958,13.7376c.9584,1.6506,2.0234,3.4343,3.2213,5.3113,8.493,13.3249,23.3086,32.1474,48.614,54.1515l34.6501,30.1241,34.6367-30.1241c23.0958-20.0739,37.4454-37.4987,46.2178-50.5175l.0003-.0006h.0059q1.89675-2.8155,3.4475-5.3247h-.0055a102.48659,102.48659,0,0,0,8.865-17.3576,52.79575,52.79575,0,0,0-93.1677-48.0681,52.803,52.803,0,0,0-93.1812,48.0681Zm16.2794,19.0299,21.385-.0616,7.5879,19.4484,7.2947-36.0346,15.1621,61.9522,12.4062-76.981,9.1848,35.329h78.2755c-10.7322,15.2468-25.2638,30.8782-43.2455,46.498l-31.1489,27.0891-31.149-27.0891C985.6145,214.7774,971.5418,197.1563,963.5717,185.238Zm-9.983-57.1942a47.48655,47.48655,0,0,1,82.4785-6.922l4.4063,6.5093,4.4195-6.5093a47.47225,47.47225,0,0,1,83.7697,43.2227,97.85778,97.85778,0,0,1-8.4127,16.4265c-.5593.9048-1.1569,1.842-1.7767,2.7947h-77.7675l-14.5098-55.8953-12.2729,76.0756-14.5628-59.5426-8.44,41.612-2.3425-5.9769-28.4012.0874c-.5051-.8316-1.026-1.7061-1.5827-2.6559a89.32165,89.32165,0,0,1-6.3097-12.9255A47.17531,47.17531,0,0,1,953.5887,128.0438Z"/></g><g class="cls-6"><image class="cls-7" width="934" height="934" transform="translate(1115.16 4.5) scale(0.24)" xlink:href="bg3.png"/><path class="cls-10" d="M1206.76915,37.54051h36.25218a11.58229,11.58229,0,0,1,11.58229,11.58229V179.36517a11.58226,11.58226,0,0,1-11.58226,11.58226h-36.2522a11.58227,11.58227,0,0,1-11.58227-11.58227V49.12278a11.58227,11.58227,0,0,1,11.58227-11.58227Z" transform="translate(277.97929 899.59118) rotate(-44.99989)"/><rect class="cls-10" x="1113.09794" y="25.60488" width="59.41666" height="13.10025" transform="translate(311.98226 817.50306) rotate(-44.99993)"/><polygon class="cls-9" points="1159.25 71.414 1157.154 61.931 1139.723 44.501 1155.152 29.072 1172.583 46.503 1182.065 48.599 1159.25 71.414"/><path class="cls-8" d="M1157.8402,89.2032l73.8321,73.8317-.0007.0006,3.9642,3.9642.0007-.0007,14.2996,14.2996a11.58219,11.58219,0,0,0,16.3796,0l10.8351-10.8351,41.281,41.281a2.80311,2.80311,0,1,0,3.9642-3.9642l-41.281-41.281,10.8351-10.8349a11.58309,11.58309,0,0,0,0-16.3798l-92.0959-92.0954a11.58219,11.58219,0,0,0-16.3796,0l-25.6344,25.6342A11.58328,11.58328,0,0,0,1157.8402,89.2032Zm2.2148-8.1898a5.93715,5.93715,0,0,1,1.7501-4.2255l25.6344-25.634a5.9753,5.9753,0,0,1,8.4505,0l92.0952,92.0952a5.98256,5.98256,0,0,1,0,8.4508l-25.6336,25.634a5.97626,5.97626,0,0,1-8.4513,0l-4.9196-4.9195,17.0394-17.0389-3.9642-3.9642-17.0394,17.039-5.4151-5.4159,6.5362-6.5365-3.9642-3.9641-6.5362,6.5365-5.3686-5.368,17.0394-17.0389-3.9642-3.9642-17.0394,17.0389-6.2543-6.2542,6.5377-6.5372-3.9642-3.9642-6.5376,6.5372-6.2556-6.2556,17.0393-17.039-3.9641-3.9641-17.0394,17.0389-5.3673-5.3672,6.5376-6.5372-3.9641-3.9642-6.5376,6.5372-6.2789-6.2789,17.0393-17.0389-3.9641-3.9642-17.0394,17.0389-5.344-5.3439,6.5376-6.5372-3.9642-3.9642-6.5376,6.5372-6.3035-6.3035,17.0394-17.039-3.9642-3.9642-17.0394,17.039-4.9107-4.9109A5.93634,5.93634,0,0,1,1160.055,81.0134Z"/></g><g class="cls-6"><image class="cls-7" width="934" height="935" transform="translate(1115.16 363.3) scale(0.24)" xlink:href="bg4.png"/><path class="cls-10" d="M1197.3636,387.11176h36.25217A11.58227,11.58227,0,0,1,1245.198,398.694V528.93639a11.58222,11.58222,0,0,1-11.58222,11.58222h-36.2522a11.58227,11.58227,0,0,1-11.58227-11.58227V398.694a11.58226,11.58226,0,0,1,11.58226-11.58226Z" transform="translate(28.04182 995.32932) rotate(-45)"/><path class="cls-9" d="M1236.5044,442.8088l-46.0518-46.0518a11.58654,11.58654,0,0,0-16.3798,0l-25.6344,25.6344a11.57926,11.57926,0,0,0,0,16.3797l46.0518,46.0518Z"/><path class="cls-8" d="M1282.5447,488.856l-73.8321-73.8317.0007-.0007-3.9642-3.9642-.0007.0007-14.2996-14.2995a11.58195,11.58195,0,0,0-16.3796,0l-10.8351,10.8351-41.281-41.2811a2.80308,2.80308,0,0,0-3.9641,3.9642l41.2809,41.281-10.8351,10.835a11.583,11.583,0,0,0,0,16.3797l92.0959,92.0954a11.58195,11.58195,0,0,0,16.3796,0l25.6344-25.6342A11.58316,11.58316,0,0,0,1282.5447,488.856Zm-2.2148,8.1898a5.93709,5.93709,0,0,1-1.7501,4.2254l-25.6343,25.634a5.97518,5.97518,0,0,1-8.4506,0L1152.3997,434.81a5.98243,5.98243,0,0,1,0-8.4507l25.6336-25.634a5.976,5.976,0,0,1,8.4513,0l4.9196,4.9194-17.0394,17.039,3.9642,3.9642,17.0394-17.039,5.4152,5.4158-6.5363,6.5365,3.9642,3.9642,6.5362-6.5365,5.3686,5.3679-17.0393,17.039,3.9641,3.9642,17.0394-17.039,6.2543,6.2543-6.5376,6.5371,3.9641,3.9642,6.5376-6.5372,6.2557,6.2557-17.0394,17.0389,3.9642,3.9642,17.0393-17.039,5.3673,5.3673-6.5376,6.5372,3.9642,3.9641,6.5376-6.5371,6.2789,6.2788-17.0394,17.039,3.9641,3.9642,17.0394-17.039,5.344,5.344-6.5376,6.5372,3.9642,3.9641,6.5376-6.5371,6.3035,6.3035-17.0394,17.039,3.9642,3.9641,17.0394-17.0389,4.9107,4.9109A5.93634,5.93634,0,0,1,1280.3299,497.0458Z"/></g><g class="cls-6"><image class="cls-7" width="1512" height="1074" transform="translate(661.08 -145.74) scale(0.24)" xlink:href="bg5.png"/><path class="cls-9" d="M817.6533-71.9754c15.5137,30.1182,29.3495,68.5885,7.6022,90.3357-21.7567,21.7567-60.2176,7.9115-90.3357-7.6022l13.6201-7.4146s28.3278,13.4045,51.7155-9.9833c23.3877-23.3877,9.9832-51.7154,9.9832-51.7154Z"/><path class="cls-8" d="M827.6473,20.7596C796.57,51.8369,736.5628,16.4445,707.724-.5638,692.4063-9.598,666.2884-28.0504,663.4863-50.138c-1.2628-9.9409,2.4004-19.2843,10.8856-27.7695l.0024-.0023,4.7892,4.7892-.0023.0023c-7.0248,7.0249-9.955,14.2625-8.9559,22.1274,2.5303,19.9379,29.4866,37.8279,40.9598,44.5937,25.2328,14.8827,84.3257,49.7349,111.693,22.3676,27.3685-27.3684-7.4837-86.4614-22.3664-111.6942-6.7658-11.4732-24.6558-38.4295-44.5937-40.9597-7.865-.9991-15.1043,1.9316-22.1297,8.9581l-4.7892-4.7892c8.4857-8.4869,17.8292-12.1502,27.7718-10.888,9.4808,1.2026,28.5278,8.5501,49.5741,44.2377C823.3334-70.3261,858.7258-10.3188,827.6473,20.7596Z"/><path class="cls-8" d="M935.6181,86.1466a33.48419,33.48419,0,0,1-47.3748-.0088L822.8616,20.7561l4.7893-4.7892,65.3816,65.3817a26.72648,26.72648,0,1,0,37.797-37.7969L882.704-4.5738a33.28644,33.28644,0,0,1-9.8222-23.6917,33.3352,33.3352,0,0,1,9.8217-23.6912,33.54328,33.54328,0,0,1,47.3841-.0006L987.8172,5.7723l-4.7892,4.7892L925.2984-47.1681a26.7627,26.7627,0,0,0-37.8057.0006,26.60948,26.60948,0,0,0-7.8386,18.9066A26.55806,26.55806,0,0,0,887.4933-9.363l48.1254,48.1255A33.54337,33.54337,0,0,1,935.6181,86.1466Z"/><circle class="cls-9" cx="985.4225" cy="8.16705" r="22.33612"/><circle class="cls-10" cx="985.4225" cy="8.167" r="11.21401"/></g><g class="cls-6"><image class="cls-7" width="1511" height="1075" transform="translate(696.12 542.34) scale(0.24)" xlink:href="bg6.png"/><path class="cls-9" d="M888.2983,712.4906c-15.5137-30.1182-29.3495-68.5885-7.6022-90.3358,21.7567-21.7567,60.2176-7.9115,90.3357,7.6022l-13.6201,7.4147s-28.3278-13.4045-51.7155,9.9832-9.9832,51.7154-9.9832,51.7154Z"/><path class="cls-8" d="M878.3043,619.7555c31.0772-31.0773,91.0845,4.3151,119.9233,21.3235,15.3177,9.0342,41.4356,27.4866,44.2377,49.5741,1.2628,9.9409-2.4005,19.2843-10.8856,27.7695l-.0024.0024-4.7892-4.7892.0023-.0024c7.0248-7.0248,9.955-14.2624,8.9558-22.1273-2.5302-19.9379-29.4865-37.8279-40.9597-44.5937-25.2328-14.8827-84.3257-49.7349-111.693-22.3677-27.3685,27.3685,7.4837,86.4614,22.3664,111.6943,6.7658,11.4732,24.6558,38.4295,44.5937,40.9597,7.865.9991,15.1043-1.9316,22.1297-8.9582l4.7892,4.7893c-8.4858,8.4869-17.8292,12.1501-27.7718,10.8879-9.4808-1.2025-28.5278-8.55-49.5741-44.2377C882.6182,710.8413,847.2258,650.834,878.3043,619.7555Z"/><path class="cls-8" d="M770.3335,554.3686a33.48407,33.48407,0,0,1,47.3748.0087L883.09,619.759l-4.7893,4.7893L812.919,559.1666a26.72644,26.72644,0,1,0-37.7969,37.7969l48.1254,48.1254a33.50523,33.50523,0,1,1-47.3835,47.3836l-57.7296-57.7296,4.7892-4.7892,57.7296,57.7296a26.73228,26.73228,0,1,0,37.8051-37.8052l-48.1254-48.1254A33.54337,33.54337,0,0,1,770.3335,554.3686Z"/><circle class="cls-9" cx="720.5291" cy="632.34815" r="22.33612"/><circle class="cls-10" cx="720.5291" cy="632.3481" r="11.21401"/></g><g class="cls-6"><image class="cls-7" width="1511" height="1074" transform="translate(1107.48 588.66) scale(0.24)" xlink:href="bg7.png"/><path class="cls-9" d="M1264.0086,662.3459c15.5136,30.1182,29.3494,68.5884,7.6022,90.3357-21.7567,21.7567-60.2177,7.9115-90.3358-7.6022l13.6202-7.4146s28.3277,13.4045,51.7155-9.9833c23.3877-23.3877,9.9831-51.7154,9.9831-51.7154Z"/><path class="cls-8" d="M1274.0026,755.0809c-31.0773,31.0773-91.0845-4.3151-119.9233-21.3235-15.3177-9.0341-41.4356-27.4865-44.2377-49.5741-1.2628-9.9409,2.4004-19.2843,10.8856-27.7695l.0024-.0023,4.7892,4.7892-.0024.0023c-7.0248,7.0248-9.9549,14.2625-8.9558,22.1274,2.5303,19.9379,29.4866,37.8279,40.9598,44.5937,25.2328,14.8827,84.3257,49.7349,111.693,22.3676,27.3685-27.3685-7.4837-86.4614-22.3664-111.6942-6.7659-11.4732-24.6558-38.4295-44.5938-40.9597-7.8649-.9992-15.1042,1.9315-22.1296,8.9581l-4.7893-4.7892c8.4858-8.487,17.8292-12.1502,27.7719-10.888,9.4808,1.2026,28.5278,8.5501,49.5741,44.2377C1269.6887,663.9952,1305.0811,724.0025,1274.0026,755.0809Z"/><path class="cls-9" d="M1116.094,651.7767l16.9727-16.9727a9.94131,9.94131,0,0,1,14.0591,0h.0001a9.94131,9.94131,0,0,1,0,14.0591l-16.9727,16.9727Z"/><path class="cls-9" d="M1170.6992,597.1715l-16.9727,16.9727a9.94125,9.94125,0,0,0,0,14.0592h0a9.94131,9.94131,0,0,0,14.0591,0l16.9727-16.9727Z"/></g><g class="cls-6"><image class="cls-7" width="793" height="750" transform="translate(1115.16 182.58) scale(0.24)" xlink:href="bg8.png"/><path class="cls-9" d="M1144.6122,242.6243l43.4518,43.4518,47.9949-47.9948-43.4519-43.4519a33.93748,33.93748,0,0,0-47.9948,47.9949Z"/><path class="cls-10" d="M1188.064,286.0761l43.4432,43.4432a33.93748,33.93748,0,1,0,47.9949-47.9948l-43.4432-43.4432Z"/><path class="cls-8" d="M1188.0641,286.076l43.4431,43.4434a33.93748,33.93748,0,1,0,47.9948-47.9949l-43.4434-43.4431Zm6.9096,0,41.0849-41.0853,39.9888,39.9885a29.05187,29.05187,0,1,1-41.0856,41.0855Z"/><path class="cls-10" d="M1130.9622,341.1782a30.9413,30.9413,0,0,0,42.8995-42.904Z"/><path class="cls-10" d="M1122.3507,332.5666l42.8995-42.904a30.94131,30.94131,0,0,0-42.8995,42.904Z"/><path class="cls-9" d="M1122.3507,332.5666c.0316.0543.0678.1086.104.1629a31.15694,31.15694,0,0,0,8.3401,8.3401c.0543.0362.1086.0769.1674.1086l42.8995-42.904c-.0317-.0543-.0678-.1086-.1041-.1629a30.38055,30.38055,0,0,0-3.774-4.5705,30.83537,30.83537,0,0,0-4.566-3.7696c-.0543-.0362-.1086-.0769-.1674-.1086Z"/><path class="cls-8" d="M1126.2291,293.5428a30.83174,30.83174,0,0,1,21.8713-9.0613v4.8856a26.07887,26.07887,0,1,0,.0015,0l-.0015-4.8856.0018-.0001a30.93937,30.93937,0,1,1-21.8731,9.0614Z"/></g></g></g></g></svg>