<svg width="41" height="37" viewBox="0 0 41 37" fill="none" xmlns="http://www.w3.org/2000/svg">
<path d="M37.1562 0H3.84375C1.72168 0 0 1.77567 0 3.96429V33.0357C0 35.2243 1.72168 37 3.84375 37H37.1562C39.2783 37 41 35.2243 41 33.0357V3.96429C41 1.77567 39.2783 0 37.1562 0ZM30.4617 23.9922C30.8461 24.3886 30.8461 25.0328 30.4617 25.4292L27.2186 28.7741C26.8342 29.1705 26.2096 29.1705 25.8252 28.7741L20.5 23.2324L15.1748 28.7741C14.7904 29.1705 14.1658 29.1705 13.7814 28.7741L10.5383 25.4292C10.1539 25.0328 10.1539 24.3886 10.5383 23.9922L15.9115 18.5L10.5383 13.0078C10.1539 12.6114 10.1539 11.9672 10.5383 11.5708L13.7814 8.22589C14.1658 7.82946 14.7904 7.82946 15.1748 8.22589L20.5 13.7676L25.8252 8.22589C26.2096 7.82946 26.8342 7.82946 27.2186 8.22589L30.4617 11.5708C30.8461 11.9672 30.8461 12.6114 30.4617 13.0078L25.0885 18.5L30.4617 23.9922Z" fill="#1C7DF0" fill-opacity="0.5"/>
</svg>
