<svg id="Layer_1" data-name="Layer 1" xmlns="http://www.w3.org/2000/svg" viewBox="0 0 87.7118 71.58619"><defs><style>.cls-1{fill:#036;}</style></defs><path class="cls-1" d="M380.02931,593.79739c-5.51387-9.56993-2.96708-21.68165,6.09087-28.96629,9.19237-7.39275,22.556-7.11391,30.98408,1.22606,3.091,3.05875,4.44965,3.46317,7.725.10124,7.72442-7.92853,20.27044-8.70828,29.35043-2.59a23.48589,23.48589,0,0,1,8.935,28.53564c-3.9444,9.91884-11.44856,17.02431-19.33232,23.74432a143.57528,143.57528,0,0,1-19.98514,14.025c-1.39988.83118-2.59814,1.88445-4.4903.70847-13.62283-8.46657-26.70838-17.54509-36.24083-30.81277a11.978,11.978,0,0,1-.99842-2.21944c2.98338-.04916,6.311,1.034,8.05167-2.8368,2.78574,4.0997,3.37755,8.929,6.51581,12.83565l6.09757-20.85912.99461.25841c2.52781,9.99785,5.05561,19.9957,7.9554,31.46476,2.9002-8.22254,5.292-15.0036,7.82109-22.174,3.3665,3.79642,3.46,8.87278,6.81753,12.41914.53818-1.12272.92405-1.8523,1.24524-2.60935,3.55206-8.37221,3.54919-8.37257,12.59771-6.63066a3.81926,3.81926,0,0,0,4.20219-1.99122,3.4286,3.4286,0,0,0-.27243-4.17657c-1.129-1.4885-2.76068-2.25344-4.3678-1.384-1.78178.96394-3.399,1.94747-5.53189,1.68415-3.59513-.44383-6.98638-.358-8.068,5.757-2.57877-5.78116-4.49833-10.08451-6.75041-15.13327-2.40465,6.7964-4.54988,12.85957-7.04484,19.91117-3.0203-11.894-5.79512-22.82127-8.932-35.17443l-7.62648,26.66427c-2.80125-3.7087-3.05878-7.95667-6.03774-11.14811C387.38786,588.88122,387.04788,594.98162,380.02931,593.79739Z" transform="translate(-377.13523 -559.52)"/></svg>