<svg width="52" height="41" viewBox="0 0 52 41" fill="none" xmlns="http://www.w3.org/2000/svg">
<path d="M25.3106 10.6365L8.66735 24.535V39.5356C8.66735 39.924 8.81952 40.2964 9.09039 40.5711C9.36125 40.8457 9.72862 41 10.1117 41L20.2274 40.9735C20.6092 40.9715 20.9748 40.8164 21.2441 40.542C21.5134 40.2675 21.6645 39.8961 21.6645 39.509V30.7489C21.6645 30.3605 21.8167 29.988 22.0876 29.7133C22.3584 29.4387 22.7258 29.2844 23.1089 29.2844H28.8862C29.2693 29.2844 29.6366 29.4387 29.9075 29.7133C30.1784 29.988 30.3305 30.3605 30.3305 30.7489V39.5026C30.33 39.6953 30.3669 39.8862 30.4392 40.0644C30.5115 40.2426 30.6178 40.4046 30.752 40.5411C30.8862 40.6776 31.0456 40.7858 31.2211 40.8597C31.3966 40.9336 31.5848 40.9716 31.7749 40.9716L41.887 41C42.2701 41 42.6374 40.8457 42.9083 40.5711C43.1792 40.2964 43.3313 39.924 43.3313 39.5356V24.5249L26.6917 10.6365C26.4961 10.4766 26.2524 10.3894 26.0012 10.3894C25.7499 10.3894 25.5062 10.4766 25.3106 10.6365ZM51.6002 20.0831L44.0535 13.7759V1.09834C44.0535 0.80704 43.9394 0.527674 43.7362 0.321696C43.5331 0.115718 43.2576 0 42.9703 0H37.9151C37.6278 0 37.3523 0.115718 37.1491 0.321696C36.946 0.527674 36.8318 0.80704 36.8318 1.09834V7.74419L28.7499 1.00223C27.9743 0.35511 27.0011 0.00129361 25.9966 0.00129361C24.9922 0.00129361 24.019 0.35511 23.2434 1.00223L0.393128 20.0831C0.283438 20.175 0.192687 20.288 0.126059 20.4155C0.0594324 20.5429 0.0182354 20.6825 0.00482241 20.8262C-0.00859058 20.9698 0.00604332 21.1147 0.047888 21.2526C0.0897326 21.3906 0.157968 21.5187 0.248695 21.6299L2.5506 24.4673C2.64108 24.5788 2.75237 24.6712 2.8781 24.7391C3.00383 24.807 3.14153 24.849 3.28332 24.8629C3.42511 24.8768 3.5682 24.8621 3.70441 24.8198C3.84061 24.7776 3.96725 24.7085 4.07708 24.6165L25.3106 6.88383C25.5062 6.72395 25.7499 6.63677 26.0012 6.63677C26.2524 6.63677 26.4961 6.72395 26.6917 6.88383L47.9261 24.6165C48.0358 24.7085 48.1622 24.7777 48.2982 24.8201C48.4342 24.8625 48.5772 24.8773 48.7189 24.8637C48.8605 24.8501 48.9982 24.8084 49.1239 24.7408C49.2497 24.6733 49.361 24.5812 49.4517 24.47L51.7536 21.6327C51.8442 21.5209 51.9122 21.392 51.9535 21.2535C51.9949 21.115 52.0088 20.9695 51.9946 20.8255C51.9803 20.6815 51.9381 20.5418 51.8704 20.4144C51.8028 20.287 51.7109 20.1744 51.6002 20.0831Z" fill="#173278"/>
</svg>
