<svg id="Layer_4" data-name="Layer 4" xmlns="http://www.w3.org/2000/svg" viewBox="0 0 264.73174 102.96"><defs><style>.cls-1{fill:#fff;}</style></defs><g id="middle"><path class="cls-1" d="M367.21277,606.27455c19.234.51064,71.95744,0,71.95744,0l8.93617-12.7234,3.57447,12.95035,5.234-5.03546,3.31915,5.03546,9.06383-62.95035,5.617,75.02127,3.82979-23.54127L485.766,606.9554l49.91489.12766v4.08511l-50.55319-.51064-2.42553-.51064-3.44681-4.59574-4.21277,40.96-6.766-79.00256-8.42554,54.25532-4.0851-13.27659-4.31915,6.6383-4.3617-12.25532-7.9149,7.40425h-71.3617Z" transform="translate(-287.60871 -543.55115)"/></g><g id="tail"><path class="cls-1" d="M543.35107,599.849a8.98938,8.98938,0,1,0,8.98938,8.98938A8.98939,8.98939,0,0,0,543.35107,599.849Zm.17994,14.36438a5.375,5.375,0,1,1,5.37506-5.375A5.375,5.375,0,0,1,543.531,614.21338Z" transform="translate(-287.60871 -543.55115)"/></g><g id="head1"><path class="cls-1" d="M312.40784,577.99658c1.00415-.0896,1.95343-.16955,2.878-.24524C312.93481,577.60742,312.40784,577.99658,312.40784,577.99658Z" transform="translate(-287.60871 -543.55115)"/><path class="cls-1" d="M344.46362,577.73364c-7.26935-.14074-9.3894-1.60162-29.17773.0177a49.41807,49.41807,0,0,1,8.49225,1.50806c9.842,2.43164,10.90313,3.72778,10.90313,3.72778,36.57483,23.69135,10.74427,44.39374,4.89106,48.28833s-17.81867,9.43439-17.81867,9.43439,18.73572,1.39166,27.73029-3.417C392.4342,614.33051,359.21277,578.01923,344.46362,577.73364Zm9.511,49.68927c11.95325-24.97931-1.91077-38.85046-1.91077-38.85046C377.25537,608.31714,353.97461,627.42291,353.97461,627.42291Z" transform="translate(-287.60871 -543.55115)"/><path class="cls-1" d="M346.90307,578.06885s-45.96825-9.61811-53.425,4.18741L290,588.57245h5.89362l.68085-4.42556s7.63265-10.189,35.4759-2.45619S346.90307,578.06885,346.90307,578.06885Z" transform="translate(-287.60871 -543.55115)"/><path class="cls-1" d="M344.82979,638.80647s-42.19149,7.85106-50.27364-7.38637l-2.99768-6.5578,5.87723.43921.34915,4.464s6.85215,10.72943,35.19422,5.09314C351.65957,629.232,344.82979,638.80647,344.82979,638.80647Z" transform="translate(-287.60871 -543.55115)"/><ellipse class="cls-1" cx="294.63354" cy="622.95074" rx="3.25643" ry="5.48221" transform="translate(-639.01612 319.20708) rotate(-85.05222)"/><ellipse class="cls-1" cx="293.08511" cy="589.91285" rx="5.48221" ry="3.25643" transform="translate(-321.06891 -525.70841) rotate(-3.29884)"/></g></svg>