<svg xmlns="http://www.w3.org/2000/svg" viewBox="0 0 601.54835 443.06149"><defs><style>.cls-1{fill:#f5f5f5;}.cls-2{fill:#e0e0e0;}.cls-3{opacity:0.2;}.cls-4{fill:#717de8;}.cls-5{fill:#383826;}.cls-6{fill:#646345;}.cls-7{fill:#8c76b7;}.cls-8{fill:#6d57a3;}.cls-9{opacity:0.3;}.cls-10{fill:#fafafa;}.cls-11{opacity:0.5;}.cls-12{fill:#fff;}</style></defs><g id="Layer_2" data-name="Layer 2"><g id="Background_Complete" data-name="Background Complete"><rect class="cls-1" x="65.2018" y="143.0252" width="134.99063" height="198.76865" transform="translate(-112.37203 114.69102) rotate(-33.77691)"/><polygon class="cls-2" points="186.086 279.659 184.813 287.54 129.034 279.505 130.308 271.624 186.086 279.659"/><polygon class="cls-2" points="157.995 251.547 165.999 252.7 157.125 307.618 149.121 306.465 157.995 251.547"/><path class="cls-2" d="M106.61837,181.7452c.08.1195-11.1645,7.7807-25.1119,17.1096-13.9524,9.3321-25.3241,16.7979-25.4041,16.6783-.0799-.1194,11.1622-7.7791,25.1145-17.1112C95.16437,189.0931,106.53847,181.6257,106.61837,181.7452Z"/><path class="cls-2" d="M147.88207,171.387c.08.1196-18.6187,12.7666-41.7592,28.2443C82.97427,215.1144,64.15,227.5649,64.07,227.4453c-.0799-.1195,18.6147-12.7638,41.7633-28.2469C128.97387,183.7207,147.80217,171.2675,147.88207,171.387Z"/><path class="cls-2" d="M156.15337,183.7533c.08.1196-18.6187,12.7666-41.7592,28.2443-23.1486,15.4832-41.9729,27.9337-42.0528,27.8141-.0799-.1195,18.6147-12.7638,41.7633-28.2469C137.24517,196.0871,156.07347,183.6339,156.15337,183.7533Z"/><path class="cls-2" d="M164.42477,196.1197c.0799.1196-18.6187,12.7666-41.7593,28.2443-23.1486,15.4831-41.9728,27.9336-42.0528,27.814-.0799-.1194,18.6147-12.7638,41.7633-28.2469C145.51647,208.4534,164.34477,196.0002,164.42477,196.1197Z"/><path class="cls-2" d="M172.69607,208.4861c.08.1195-18.6187,12.7665-41.7592,28.2443-23.1486,15.4831-41.9729,27.9336-42.0529,27.814-.0799-.1195,18.6147-12.7638,41.7633-28.2469C153.78787,220.8198,172.61617,208.3666,172.69607,208.4861Z"/><rect class="cls-1" x="451.34341" y="250.43006" width="113.36909" height="166.93178" transform="translate(-99.88227 338.80198) rotate(-33.77688)"/><polygon class="cls-2" points="552.866 365.18 551.796 371.798 504.952 365.05 506.021 358.431 552.866 365.18"/><polygon class="cls-2" points="529.274 341.569 535.996 342.538 528.543 388.659 521.821 387.691 529.274 341.569"/><path class="cls-2" d="M486.12626,282.9482c.08.1196-9.3531,6.5692-21.0666,14.4039-11.7175,7.8374-21.27819,14.0918-21.35819,13.9722-.07991-.1195,9.35109-6.5677,21.06869-14.4051C476.48366,289.0845,486.04636,282.8287,486.12626,282.9482Z"/><path class="cls-2" d="M520.78076,274.2491c.0799.1196-15.6134,10.7564-35.0475,23.7551-19.44079,13.0031-35.2604,23.4439-35.3404,23.3244-.0799-.1195,15.61-10.7541,35.0509-23.7573C504.87786,284.5726,520.70076,274.1296,520.78076,274.2491Z"/><path class="cls-2" d="M527.72716,284.6347c.0801.1196-15.6133,10.7565-35.0474,23.7551-19.4408,13.0032-35.2604,23.4439-35.3404,23.3244-.07989-.1195,15.61-10.7541,35.0509-23.7573C511.82436,294.9583,527.64726,284.5153,527.72716,284.6347Z"/><path class="cls-2" d="M534.67376,295.0204c.0799.1196-15.61329,10.7564-35.0474,23.755-19.44089,13.0032-35.2605,23.444-35.3404,23.3244-.08-.1194,15.6099-10.7541,35.0508-23.7572C518.77086,305.3439,534.59386,294.9009,534.67376,295.0204Z"/><path class="cls-2" d="M541.62026,305.406c.08.1196-15.6133,10.7564-35.0474,23.7551-19.4409,13.0032-35.2605,23.4439-35.34039,23.3243-.08-.1194,15.60989-10.754,35.05079-23.7572C525.71736,315.7296,541.54036,305.2865,541.62026,305.406Z"/><rect class="cls-1" x="209.46581" y="90.69082" width="116.59975" height="171.6887" transform="translate(114.90242 -105.41509) rotate(28.13859)"/><polygon class="cls-2" points="261.089 232.368 254.566 234.602 238.008 188.828 244.531 186.594 261.089 232.368"/><polygon class="cls-2" points="271.09 199.529 273.466 206.098 228.007 221.667 225.631 215.098 271.09 199.529"/><path class="cls-2" d="M303.391,131.9934c-.0806.1506-10.5091-5.2698-23.2898-12.1051-12.7851-6.8377-23.0808-12.5009-23.0002-12.6516.08051-.1504,10.5067,5.2688,23.2918,12.1064C293.17347,126.1784,303.47147,131.843,303.391,131.9934Z"/><path class="cls-2" d="M328.06376,159.2266c-.0806.1507-17.3396-8.9229-38.54429-20.2635-21.21211-11.3445-38.337-20.6601-38.25641-20.8106.0805-.1505,17.3358,8.921,38.5479,20.2655C311.01556,149.7586,328.14416,159.0762,328.06376,159.2266Z"/><path class="cls-2" d="M322.00326,170.5585c-.0806.1506-17.3395-8.9229-38.5443-20.2635-21.2121-11.3446-38.3369-20.6601-38.2563-20.8107.0805-.1505,17.33581,8.921,38.5479,20.2656C304.95516,161.0905,322.08366,170.4081,322.00326,170.5585Z"/><path class="cls-2" d="M315.94286,181.8903c-.0806.1506-17.3396-8.9229-38.5443-20.2635-21.21209-11.3445-38.337-20.6601-38.2564-20.8106.0805-.1506,17.3358,8.9209,38.5479,20.2655C298.89466,172.4223,316.02326,181.7399,315.94286,181.8903Z"/><path class="cls-2" d="M309.88236,193.2221c-.0806.1507-17.3395-8.9228-38.5443-20.2635-21.2121-11.3445-38.3369-20.6601-38.2563-20.8106.0805-.1505,17.3358,8.921,38.5479,20.2655C292.83426,183.7542,309.96276,193.0717,309.88236,193.2221Z"/><rect class="cls-3" x="307.83816" width="2.5832" height="43.9829"/></g><g id="Lamp"><path class="cls-4" d="M248.89926,97.1886h120.461s-11.1221-53.2335-61.1434-53.2335C263.72486,43.9551,248.89926,97.1886,248.89926,97.1886Z"/><rect class="cls-4" x="307.83816" width="2.5832" height="43.9829"/></g><g id="Floor"><path class="cls-5" d="M577.333,439.8284c0,.1439-129.2508.2605-288.6526.2605C129.22307,440.0889,0,439.9723,0,439.8284c0-.1437,129.22307-.2603,288.68036-.2603C448.08216,439.5681,577.333,439.6847,577.333,439.8284Z"/></g><g id="Plant"><path class="cls-4" d="M31.95247,377.2011a12.60331,12.60331,0,0,1,8.7847,4.4988,22.25017,22.25017,0,0,1,4.472,9.0115c1.6919,6.3234.6521,13.7859-1.1515,20.0783-6.8455-2.4468-11.0671-9.7474-12.9759-13.5855-3.0171-6.0663-4.7861-18.862.8707-20.0031"/><path class="cls-4" d="M53.90817,418.4538a10.75311,10.75311,0,0,1-.5033-10.7856,14.28015,14.28015,0,0,1,8.6006-6.9128c1.6705-.513,3.6088-.7285,5.0619.2421a4.599,4.599,0,0,1,1.7702,4.312,9.32734,9.32734,0,0,1-1.969,4.4246c-3.3285,4.5068-7.3769,8.257-12.9604,8.7197"/><path class="cls-5" d="M54.66167,439.5844a7.61884,7.61884,0,0,1-.3063-1.3138c-.1831-.9375-.4197-2.1489-.704-3.604a37.74489,37.74489,0,0,1-.7489-12.1033,23.10276,23.10276,0,0,1,4.4903-11.2182,15.68255,15.68255,0,0,1,2.5968-2.6246,9.52519,9.52519,0,0,1,.8148-.5855c.1914-.1259.2961-.1853.3056-.172a24.56319,24.56319,0,0,0-3.4512,3.5864,23.853,23.853,0,0,0-4.2863,11.0772c-.6378,4.6665.1522,8.9366.6093,11.9827.2447,1.5298.4425,2.77.5557,3.6308A7.1128,7.1128,0,0,1,54.66167,439.5844Z"/><path class="cls-5" d="M34.16037,386.8263a2.73051,2.73051,0,0,1,.2756.5185c.1822.3938.4161.8989.7054,1.5241.6049,1.3269,1.4554,3.2579,2.4861,5.6527,2.0625,4.7891,4.8192,11.4458,7.6972,18.8636,2.8766,7.4213,5.3288,14.1968,7.0344,19.1243.8536,2.4636,1.5273,4.4628,1.9751,5.8506.2076.6566.3755,1.1874.5064,1.6009a2.72707,2.72707,0,0,1,.146.5687,2.737,2.737,0,0,1-.2364-.5375c-.1525-.406-.3483-.927-.5904-1.5717-.5202-1.4249-1.2381-3.3919-2.1165-5.7986-1.7859-4.8965-4.2861-11.6488-7.1608-19.0653-2.8762-7.4128-5.5817-14.0848-7.5642-18.905-.9738-2.3696-1.7698-4.3065-2.3465-5.7098-.2557-.6394-.4625-1.1564-.6236-1.5591A2.73367,2.73367,0,0,1,34.16037,386.8263Z"/><path class="cls-4" d="M46.53557,425.6038a25.15557,25.15557,0,0,0-19.5218-12.1292c-2.0237-.1468-4.4578.1937-5.3604,2.0108-.9042,1.8203.3048,3.9747,1.6835,5.4682a21.491,21.491,0,0,0,23.2736,5.1952"/><path class="cls-5" d="M30.09537,418.8922a6.47036,6.47036,0,0,1,1.2671.0468,12.23326,12.23326,0,0,1,1.4783.1714c.5702.1062,1.2335.1681,1.9393.3648a22.068,22.068,0,0,1,2.3068.6407,24.77108,24.77108,0,0,1,2.5711.9773,27.96349,27.96349,0,0,1,5.4172,3.2116,27.39341,27.39341,0,0,1,4.4781,4.431,23.88974,23.88974,0,0,1,1.5774,2.2551,20.34357,20.34357,0,0,1,1.1732,2.0882,18.61866,18.61866,0,0,1,.8058,1.8021,11.32477,11.32477,0,0,1,.5028,1.4008,6.43929,6.43929,0,0,1,.3296,1.2243c-.1011.0353-.5876-1.7128-1.9361-4.2733a21.74513,21.74513,0,0,0-1.2067-2.0302,25.07033,25.07033,0,0,0-1.5871-2.194,28.48933,28.48933,0,0,0-4.4265-4.3283,29.10378,29.10378,0,0,0-5.3075-3.1889,26.07906,26.07906,0,0,0-2.5167-1.003c-.7945-.3045-1.5637-.4943-2.2608-.6876C31.894,419.0915,30.08437,418.9954,30.09537,418.8922Z"/></g><g id="Character"><path class="cls-5" d="M484.02766,105.475c-2.9403.6774-4.37219,4.0602-4.6507,7.0646s.1042,6.1772-1.1574,8.918c-1.4203,3.0854-4.8122,5.3591-4.9252,8.7538-.069,2.0692,1.16011,4.0154,1.1012,6.085-.0967,3.3993-3.5634,5.9679-3.745,9.3637-.1308,2.445,1.4975,4.7915,1.10591,7.2085-.30481,1.8814-1.76911,3.363-2.38841,5.1655-1.2345,3.5928,1.2338,7.5476,4.4495,9.5705a14.58188,14.58188,0,0,0,21.2471-6.7887c1.779-4.3188,1.3902-9.1817,1.0036-13.8364q-1.8075-21.7584-2.6856-43.5808"/><path class="cls-6" d="M475.491,156.6638a3.52585,3.52585,0,0,0,1.3436-1.5982,5.66858,5.66858,0,0,0,.3424-2.4409,13.55276,13.55276,0,0,0-.7292-3.2381,9.22751,9.22751,0,0,1-.522-4.1001c.2521-1.5575,1.3659-2.8356,2.3828-4.0921a9.13621,9.13621,0,0,0,1.3503-2.0523,3.3142,3.3142,0,0,0,.1563-2.3978c-.5162-1.6342-2.1168-2.836-2.852-4.7218a5.1,5.1,0,0,1-.16069-2.918,11.83755,11.83755,0,0,1,.96519-2.6173,22.356,22.356,0,0,0,1.9869-4.7056c.7018-3.172.3743-6.1997.8516-8.6871a9.65127,9.65127,0,0,1,2.5285-5.3283,5.68076,5.68076,0,0,1,1.3214-.9419,2.27327,2.27327,0,0,1,.5291-.1981,8.10285,8.10285,0,0,0-1.707,1.2832,9.73727,9.73727,0,0,0-2.3089,5.2465,32.91889,32.91889,0,0,0-.2779,4.0409,24.65646,24.65646,0,0,1-.4696,4.6942,22.353,22.353,0,0,1-1.9931,4.8149c-.752,1.5711-1.4427,3.4134-.7775,5.1347.6351,1.7025,2.2464,2.9115,2.8506,4.7504a3.81593,3.81593,0,0,1-.1867,2.7493,9.50787,9.50787,0,0,1-1.4337,2.1562c-1.0451,1.2638-2.0915,2.4664-2.3304,3.8656a8.99578,8.99578,0,0,0,.451,3.9236,13.37476,13.37476,0,0,1,.6659,3.3262,5.71033,5.71033,0,0,1-.44739,2.5347,3.03435,3.03435,0,0,1-1.02451,1.2619A1.6523,1.6523,0,0,1,475.491,156.6638Z"/><path class="cls-7" d="M467.61776,180.3662l-9.0268,26.0221-37.6434,2.0177-6.2775,13.9685,39.3003,3.976a14.84856,14.84856,0,0,0,19.6509-8.7144l10.48821-29.2752Z"/><path class="cls-7" d="M545.48016,425.6973s-27.5864-87.6175-28.1713-90.4622c-.5291-2.5712,10.0112-65.6236,11.339-81.9422l-37.2745,1.3896-.0033.2721-15.8439.8788,14.1906,179.193h17.1531l-1.7008-59.4513c10.5767,28.397,25.7345,57.3349,25.7345,57.3349Z"/><path class="cls-8" d="M505.86906,396.8831c.0153-.5439-.2078-19.9191-.2078-19.9191-.2142,1.1592-6.576-16.8227-6.4222-17.916C499.31866,358.482,505.86906,396.8831,505.86906,396.8831Z"/><path class="cls-8" d="M498.51347,350.5348a4.02487,4.02487,0,0,0-.11,1.0859,28.69889,28.69889,0,0,0,.02269,2.9707c.0239.6282.0897,1.3135.1711,2.0489.0936.733.19421,1.5193.3639,2.3339a40.018,40.018,0,0,0,1.4019,5.2203c1.2456,3.6241,2.6199,6.7948,3.5956,9.0955q.69375,1.5741,1.1939,2.7091a4.037,4.037,0,0,0,.5087.9649,4.03314,4.03314,0,0,0-.3031-1.0478c-.2295-.661-.5798-1.6102-1.0261-2.7775-.8803-2.3387-2.1949-5.5342-3.4291-9.126a45.27862,45.27862,0,0,1-1.4273-5.1424c-.1813-.7997-.2974-1.5711-.41019-2.2915-.10031-.7228-.18841-1.3973-.23751-2.0172-.1183-1.2372-.1719-2.2453-.2027-2.9422A4.0494,4.0494,0,0,0,498.51347,350.5348Z"/><path class="cls-6" d="M489.395,435.9104l-.0074-1.6112,17.57-.7655.048,6.6449-1.0837.073c-4.8228.2822-24.5418,1.0958-27.7692.1282C474.553,439.2997,489.395,435.9104,489.395,435.9104Z"/><path class="cls-5" d="M507.25066,439.7763a1.59492,1.59492,0,0,1-.3003.0337c-.2591.0166-.5427.0348-.863.0552-.8632.0403-1.9243.0898-3.1765.1483-2.683.1063-6.3919.2038-10.4891.2224-4.0985.0173-7.8086-.0477-10.4924-.1305-1.2526-.0474-2.3141-.0877-3.1776-.1205-.32029-.0177-.6041-.0333-.86329-.0476a.15144.15144,0,1,1,.00139-.0427c.25961.0023.5438.005.8645.008.8636.0144,1.9254.0322,3.1784.0531,2.6838.0444,6.3918.0856,10.4881.0683,4.0949-.0185,7.802-.0923,10.4852-.1601,1.2529-.032,2.3145-.0591,3.178-.0812.3208-.0056.605-.0108.8645-.0153A1.63469,1.63469,0,0,1,507.25066,439.7763Z"/><path class="cls-5" d="M483.70276,440.3425a4.61812,4.61812,0,0,0-1.68629-2.7268,2.82422,2.82422,0,0,1,1.68629,2.7268Z"/><path class="cls-5" d="M488.85106,437.707c-.0493.0315-.2971-.2679-.5535-.6686-.2565-.4008-.4244-.7513-.37509-.7828.04919-.0316.297.2678.55349.6687C488.73247,437.3251,488.90036,437.6755,488.85106,437.707Z"/><path class="cls-5" d="M490.26376,436.9535c-.0391.0436-.3155-.1395-.6176-.4088-.3022-.2695-.5154-.5234-.4766-.5671.039-.0436.3155.1394.6176.4088C490.08926,436.6559,490.30266,436.9098,490.26376,436.9535Z"/><path class="cls-5" d="M491.15266,435.3004a3.99034,3.99034,0,1,1-.9147-.0923A2.0574,2.0574,0,0,1,491.15266,435.3004Z"/><path class="cls-5" d="M491.45566,434.1358a2.56939,2.56939,0,0,1-2.0681.1634,78.85885,78.85885,0,0,0,2.0681-.1634Z"/><path class="cls-5" d="M488.25256,436.1844a3.23938,3.23938,0,0,1-1.1233-.0031,6.57905,6.57905,0,0,1-1.19679-.2592,3.28417,3.28417,0,0,1-.68551-.2796.60864.60864,0,0,1-.2794-.348.44231.44231,0,0,1,.1686-.4496,2.06,2.06,0,0,1,2.5497.5934,2.00718,2.00718,0,0,1,.3691.7482.62388.62388,0,0,1,.0303.3032,3.17733,3.17733,0,0,0-.5153-.9564,2.02625,2.02625,0,0,0-.9617-.62,1.74236,1.74236,0,0,0-1.3385.096c-.1778.1327-.1076.3423.0912.4598a3.35321,3.35321,0,0,0,.6324.2674,7.729,7.729,0,0,0,1.1578.2968C487.82436,436.1501,488.25276,436.1497,488.25256,436.1844Z"/><path class="cls-5" d="M487.96186,436.241a1.10681,1.10681,0,0,1-.1323-.7793,1.84056,1.84056,0,0,1,.3037-.8219,1.12733,1.12733,0,0,1,.9329-.576.44712.44712,0,0,1,.3482.5175,1.228,1.228,0,0,1-.189.5025,3.40644,3.40644,0,0,1-.528.6816,1.62021,1.62021,0,0,1-.6412.457c-.0198-.0273.223-.2023.5315-.559a3.93327,3.93327,0,0,0,.46781-.6758c.15339-.238.25729-.6646-.02461-.7149-.2812-.0259-.5673.2549-.7381.4796a1.84794,1.84794,0,0,0-.3151.7315A4.08369,4.08369,0,0,0,487.96186,436.241Z"/><path class="cls-5" d="M506.87656,434.9948c-.0037.0395-.5009-.0458-1.2905.0501a5.476,5.476,0,0,0-4.5653,3.6661c-.2641.7504-.2882,1.254-.3276,1.2492a1.00872,1.00872,0,0,1-.00169-.3527,4.60133,4.60133,0,0,1,.187-.9433,5.313,5.313,0,0,1,4.69259-3.7684,4.61419,4.61419,0,0,1,.9615.0211A1.00951,1.00951,0,0,1,506.87656,434.9948Z"/><path class="cls-5" d="M498.46216,438.3838a14.35961,14.35961,0,0,1-5.1085.0278c.006-.0614,1.147.013,2.5545.0033C497.31516,438.4093,498.45556,438.3225,498.46216,438.3838Z"/><path class="cls-5" d="M501.88716,438.3467c.0427.0426-.09269.2421-.2082.5046-.1193.2609-.1784.4947-.2388.4912-.0565-.0003-.091-.276.0454-.5779C501.62047,438.462,501.84926,438.3045,501.88716,438.3467Z"/><path class="cls-5" d="M503.17247,436.7351c.04169.0411-.07041.2234-.25051.4073-.1802.184-.3601.3-.402.259-.0417-.0408.0704-.2231.2506-.4072C502.95066,436.8103,503.13066,436.6942,503.17247,436.7351Z"/><path class="cls-5" d="M505.01716,435.9943c-.012.0594-.2442.0582-.5005.1495-.2586.0852-.44119.2287-.4871.1891-.047-.0318.0992-.2813.4183-.3895C504.76616,435.833,505.03486,435.9402,505.01716,435.9943Z"/><path class="cls-5" d="M506.33116,435.6431c.0214.0545-.0788.1446-.2236.2013-.1448.0569-.2795.0586-.3008.0043-.0214-.0544.0786-.1446.2236-.2014C506.17516,435.5905,506.30986,435.5887,506.33116,435.6431Z"/><path class="cls-6" d="M530.55956,434.3603l-.6667-1.4668,15.7148-7.8953,2.7656,6.0422-.9587.5104c-4.284,2.233-21.9396,11.0525-25.2802,11.4918C518.40806,443.5317,530.55956,434.3603,530.55956,434.3603Z"/><path class="cls-5" d="M548.43216,430.573a1.60886,1.60886,0,0,1-.2603.1537c-.22939.1213-.4808.2541-.7646.4038q-1.15635.5856-2.837,1.4366c-2.4042,1.1959-5.7476,2.8041-9.47779,4.4994-3.73181,1.6946-7.14291,3.1549-9.62511,4.1787q-1.7433.70455-2.9481,1.1917c-.2995.1151-.56479.217-.8072.3101a.15141.15141,0,1,1-.0161-.0395c.2377-.1041.4979-.2182.7919-.3469q1.19055-.5109,2.9212-1.2534c2.4666-1.0588,5.8661-2.5401,9.5958-4.2337,3.7281-1.6943,7.07961-3.28,9.4997-4.441q1.6947-.8136,2.86591-1.3757c.29029-.1366.54749-.2577.78239-.3682A1.63649,1.63649,0,0,1,548.43216,430.573Z"/><path class="cls-5" d="M527.18226,440.7351a4.6172,4.6172,0,0,0-2.6554-1.7968,2.82379,2.82379,0,0,1,2.6554,1.7968Z"/><path class="cls-5" d="M530.79926,436.222c-.032.0489-.3807-.1226-.7789-.3833-.398-.2605-.6948-.5115-.6628-.5604.032-.049.3807.1227.77891.3832C530.53456,435.9221,530.83136,436.1731,530.79926,436.222Z"/><path class="cls-5" d="M531.77936,434.956c-.0177.0558-.345.0019-.73089-.12-.38611-.1221-.68461-.2664-.667-.3221.01769-.0559.34489-.002.73089.12C531.49826,434.756,531.797,434.9002,531.77936,434.956Z"/><path class="cls-5" d="M531.91306,433.0838c.0248.0532-.32559.2692-.7825.4825a2.06135,2.06135,0,0,1-.8724.2904c-.0248-.053.3257-.2689.7827-.4825A2.0631,2.0631,0,0,1,531.91306,433.0838Z"/><path class="cls-5" d="M531.71247,431.8973c.03939.0395-.28291.4059-.80481.6899a1.77411,1.77411,0,0,1-1.0148.3063,79.14261,79.14261,0,0,0,1.81961-.9962Z"/><path class="cls-5" d="M529.62966,435.078a3.23639,3.23639,0,0,1-1.0261.4575,6.58588,6.58588,0,0,1-1.198.2537,3.278,3.278,0,0,1-.7398.0257.60707.60707,0,0,1-.39729-.2031.4419.4419,0,0,1-.03041-.4792,2.05985,2.05985,0,0,1,2.5689-.503,2.00554,2.00554,0,0,1,.6432.5314c.1204.1564.1625.2576.1518.2642a3.17669,3.17669,0,0,0-.8616-.6614,2.02434,2.02434,0,0,0-1.1314-.1716,1.74139,1.74139,0,0,0-1.1817.6357c-.108.1941.042.3564.2715.3821a3.35091,3.35091,0,0,0,.6864-.015,7.73143,7.73143,0,0,0,1.1779-.2036C529.225,435.2223,529.61556,435.0464,529.62966,435.078Z"/><path class="cls-5" d="M529.38756,435.2489a1.1082,1.1082,0,0,1-.4399-.6569,1.84284,1.84284,0,0,1-.0597-.8741,1.1275,1.1275,0,0,1,.6153-.9075c.251-.0772.837.4273.8774.6165.0626.1877-.2961.0909-.3145.2488a3.39785,3.39785,0,0,1-.2024.838,1.62,1.62,0,0,1-.3978.6796c-.0293-.0168.1206-.2759.2559-.7277a3.93386,3.93386,0,0,0,.15-.8082c.0424-.2799-.0376-.7116-.3153-.6419-.2672.0915-.41309.4647-.4769.7397a1.849,1.849,0,0,0,.0121.7965A4.0933,4.0933,0,0,0,529.38756,435.2489Z"/><path class="cls-5" d="M546.13216,426.3642c.0128.0377-.4756.1633-1.15669.5744a5.47608,5.47608,0,0,0-2.663,5.2145c.06639.7926.25079,1.2618.21279,1.2736a1.00965,1.00965,0,0,1-.146-.321,4.60782,4.60782,0,0,1-.21579-.9371,5.31235,5.31235,0,0,1,2.73729-5.3598,4.58932,4.58932,0,0,1,.8858-.3747A1.01437,1.01437,0,0,1,546.13216,426.3642Z"/><path class="cls-5" d="M539.84426,432.9026a14.35788,14.35788,0,0,1-4.64879,2.1178c-.01961-.0584,1.05169-.4579,2.33159-1.0433C538.80836,433.3957,539.81316,432.8493,539.84426,432.9026Z"/><path class="cls-5" d="M542.95356,431.4658c.0564.0213.0147.2588.0168.5456-.002.2869.0398.5244-.0167.5458-.0516.023-.196-.2145-.1953-.5457C542.75747,431.6802,542.90176,431.4428,542.95356,431.4658Z"/><path class="cls-5" d="M543.466,429.4692c.055.0203.0273.2325-.0618.474-.0889.2418-.2055.4213-.2605.401-.0548-.0201-.0273-.2324.06181-.4741C543.29447,429.6285,543.41106,429.449,543.466,429.4692Z"/><path class="cls-5" d="M544.84547,428.0376c.01339.0592-.19911.1532-.39551.3415-.201.1837-.3087.3893-.3668.372-.056-.0098-.02469-.2973.2221-.5266C544.55036,427.9934,544.83926,427.9811,544.84547,428.0376Z"/><path class="cls-5" d="M545.90026,427.179c.0418.0411-.0126.1642-.1215.2754-.1088.1111-.2309.1679-.2727.1271-.0418-.0409.0126-.1642.12141-.2753C545.73636,427.1949,545.85847,427.1381,545.90026,427.179Z"/><path class="cls-4" d="M526.23076,223.6354l-2.9258-35.697,15.0283.2675s.6965-5.2629-1.5179-16.8085c-1.358-7.0799-6.0733-11.4218-11.361-14.0019l.0013-.0949-.4586-.1197a42.95844,42.95844,0,0,0-13.7653-3.5921l-18.4469.2131s-14.0921-1.7583-21.8922,8.2878c-3.0047,3.8698-12.3017,30.3553-12.3017,30.3553l22.142,10.6635-2.1077-14.6868s.4186,10.6486,1.7779,14.0227c.75731,1.8799,2.9491,7.7162,2.9491,7.7162l-.28579,17.6145Z"/><polygon class="cls-4" points="516.053 182.756 513.315 194.422 539.146 194.422 537.447 174.864 516.053 182.756"/><path class="cls-5" d="M539.14626,194.4216a19.31163,19.31163,0,0,0-3.4191-.3384c-2.11669-.1243-5.0461-.2287-8.2835-.2143-3.2384.0158-6.1684.1561-8.2833.324a18.4748,18.4748,0,0,0-3.4104.4208,23.01579,23.01579,0,0,0,3.4321-.0186c2.11541-.0647,5.0362-.1408,8.2645-.1567,3.227-.0142,6.1496.0262,8.26691.0473A21.85182,21.85182,0,0,0,539.14626,194.4216Z"/><path class="cls-5" d="M514.94,174.7684a15.33186,15.33186,0,0,0-.0864,2.9672c.0195,1.8305.0857,4.3575.194,7.1472.1084,2.7905.2384,5.3154.36091,7.1418a15.34769,15.34769,0,0,0,.31609,2.9514,15.34509,15.34509,0,0,0,.0863-2.967c-.01939-1.8304-.0856-4.3578-.194-7.1483-.1083-2.7897-.2383-5.3143-.3608-7.1406A15.36144,15.36144,0,0,0,514.94,174.7684Z"/><g class="cls-9"><path d="M491.43456,184.8722s5.7415,42.5676,21.8808,41.441c0,0,7.2664-.0864,9.6032-4.916v-1.9013Z"/></g><g class="cls-9"><polygon points="514.94 177.277 511.85 198.145 513.85 201.807 517.143 194.647 515.75 194.614 514.94 177.277"/></g><path class="cls-5" d="M483.35236,210.1606a4.37337,4.37337,0,0,1-.436-.9968c-.2507-.6522-.5841-1.6064-.9702-2.7943a84.887,84.887,0,0,1-2.4702-9.4454,68.15111,68.15111,0,0,1-1.2241-9.6908c-.0599-1.2489-.0787-2.2605-.06-2.9595a4.36658,4.36658,0,0,1,.0744-1.0854c.0829-.0012.1393,1.5408.3529,4.0196a90.19359,90.19359,0,0,0,1.3676,9.615c.7415,3.7211,1.6328,7.0438,2.3118,9.4396q.4761,1.66725.8104,2.8379A4.38914,4.38914,0,0,1,483.35236,210.1606Z"/><path class="cls-5" d="M489.87847,222.3929c-.13771.0416-.53721-.8768-.89241-2.0511a4.965,4.965,0,0,1-.3939-2.2021c.1376-.0417.5371.8766.8924,2.0513A4.967,4.967,0,0,1,489.87847,222.3929Z"/><path class="cls-5" d="M492.10956,222.23a9.213,9.213,0,0,1-.0919-6.2395,20.92346,20.92346,0,0,1,.0223,3.1203A20.93314,20.93314,0,0,1,492.10956,222.23Z"/><path class="cls-5" d="M481.18216,203.5961c-.0643.1287-5.2173-2.3159-11.508-5.4595-6.293-3.1446-11.3406-5.7972-11.2763-5.9259.0642-.1286,5.2161,2.3155,11.5091,5.4601C476.19766,200.8143,481.24647,203.4675,481.18216,203.5961Z"/><path class="cls-7" d="M490.26206,157.2534c.1151-5.0591.1436-10.3871.1436-10.3871s-6.489-1.2504-7.6196-9.788c-1.0781-8.1421,1.9379-27.2469,1.9379-27.2469h0c9.4781-3.583,19.3276-.3355,25.8221,7.3445h0l-1.612,41.0741c-.1872,4.7684-4.4362,8.4051-9.5404,8.1657h-.0001C494.23866,166.1739,490.15236,162.0734,490.26206,157.2534Z"/><path class="cls-5" d="M484.23126,125.0999a1.091,1.091,0,0,0,1.0231,1.1273,1.04316,1.04316,0,0,0,1.1493-.9541,1.09123,1.09123,0,0,0-1.0217-1.1281A1.04429,1.04429,0,0,0,484.23126,125.0999Z"/><path class="cls-5" d="M483.82536,123.667c.1316.1456.9735-.4443,2.1468-.4108,1.1725.0165,2.0181.6424,2.1491.5019.06421-.0619-.06679-.322-.4349-.6049a2.99365,2.99365,0,0,0-1.7158-.5778,2.87425,2.87425,0,0,0-1.7132.5047C483.88936,123.3476,483.76056,123.6016,483.82536,123.667Z"/><path class="cls-5" d="M496.13716,125.8409a1.09113,1.09113,0,0,0,1.023,1.1275,1.04326,1.04326,0,0,0,1.1494-.9541,1.09141,1.09141,0,0,0-1.022-1.1281A1.04405,1.04405,0,0,0,496.13716,125.8409Z"/><path class="cls-5" d="M496.058,124.4094c.1316.1457.97451-.4441,2.147-.4108,1.1724.0165,2.0181.6425,2.1493.502.0638-.0621-.0659-.3221-.4353-.605a2.99291,2.99291,0,0,0-1.71549-.5778,2.87519,2.87519,0,0,0-1.71341.5047C496.123,124.0901,495.99347,124.3441,496.058,124.4094Z"/><path class="cls-5" d="M491.57486,133.0015a7.77114,7.77114,0,0,0-1.8971-.393c-.2988-.0387-.5808-.1055-.6261-.3113a1.52682,1.52682,0,0,1,.223-.883q.4506-1.0767.945-2.2587a39.23832,39.23832,0,0,0,2.1442-5.9166,39.30625,39.30625,0,0,0-2.6153,5.7302q-.4752,1.19-.90809,2.2734a1.73435,1.73435,0,0,0-.18581,1.1718.75179.75179,0,0,0,.4813.4508,2.042,2.042,0,0,0,.5071.0839A7.63667,7.63667,0,0,0,491.57486,133.0015Z"/><path class="cls-8" d="M490.40566,146.8663a21.63889,21.63889,0,0,0,11.4654-2.7437s-2.9133,5.7695-11.40259,4.754Z"/><path class="cls-5" d="M499.814,121.024c-.2407.3669-1.13349.2044-2.1332.0242-.9962-.2006-1.886-.3781-1.9748-.8079-.099-.4121.93351-.9829,2.2676-.7268C499.30766,119.7665,500.05776,120.6772,499.814,121.024Z"/><path class="cls-5" d="M488.14626,119.3017c-.09079.4276-1.0462.5835-2.1482.64-1.103.0448-2.0685-.0228-2.1981-.4403-.1319-.4044.8002-1.0615,2.1263-1.1204C487.25186,118.3181,488.24047,118.8869,488.14626,119.3017Z"/><path class="cls-8" d="M491.59356,135.8104a.59333.59333,0,0,0-.6495.2968.66671.66671,0,1,0,.3992-.3185"/><path class="cls-5" d="M491.86847,135.926c.05269-.0466-.18761-.3355-.70011-.2234a.888.888,0,0,0-.6415.6288,1.00427,1.00427,0,0,0,.3531,1.0628.9885.9885,0,0,0,1.1247.0071.84305.84305,0,0,0,.3604-.8342c-.1028-.5272-.4927-.6108-.50359-.5377-.04421.0662.13619.2487.10139.5605a.44483.44483,0,0,1-.238.3673.50915.50915,0,0,1-.50739-.0218.5278.5278,0,0,1-.17971-.4842.50622.50622,0,0,1,.2694-.3705C491.58476,135.9241,491.83186,135.9982,491.86847,135.926Z"/><path class="cls-5" d="M506.61606,127.2081c-1.0119,2.3442-3.4799,4.1502-3.13759,6.6804.221,1.6335,1.26879,3.1564,1.065,4.7921-.25591,2.0539-2.39031,3.478-2.69211,5.5256-.3703,2.5119,2.0728,4.4641,3.049,6.808,1.4214,3.4132-.3972,7.2517-.44,10.9488a11.74034,11.74034,0,0,0,10.3944,11.4178c2.2832.1882,4.8546-.5006,6.0381-2.4622.9765-1.6183.7814-3.6737,1.3671-5.4709.8721-2.6762,3.4229-4.6348,3.9607-7.3977.9802-5.0369-5.107-9.2049-4.7066-14.3206.1711-2.1858,1.5205-4.0926,2.0943-6.2086a9.09584,9.09584,0,0,0-1.7857-8.0919c-1.5024-1.7866-3.6817-2.9618-4.9615-4.9141-1.451-2.2136-1.501-5.0209-2.0482-7.6105a19.17371,19.17371,0,0,0-30.4521-11.2317s-1.4545,6.5913,5.3107,7.6931c6.7652,1.1017,9.90091-.1695,10.6636,2.5424a7.16944,7.16944,0,0,0,2.0265,6.1931C505.159,125.1269,507.78766,124.4939,506.61606,127.2081Z"/><path class="cls-6" d="M517.41226,172.92a2.75349,2.75349,0,0,1-.6175-.0645,9.15172,9.15172,0,0,1-1.7209-.4642,12.13939,12.13939,0,0,1-5.2347-3.8751,13.70583,13.70583,0,0,1-2.2252-3.9613,15.87437,15.87437,0,0,1-.9093-5.1339,20.90979,20.90979,0,0,1,.721-5.7103,24.834,24.834,0,0,1,.9571-2.8928,28.85431,28.85431,0,0,0,1.0978-2.8729,5.4083,5.4083,0,0,0-.0098-2.9332,15.954,15.954,0,0,0-1.1374-2.7378,18.32424,18.32424,0,0,1-1.1651-2.7101,5.85492,5.85492,0,0,1-.2101-2.8736c.3986-1.8841,1.5426-3.2784,2.2181-4.7087a8.94892,8.94892,0,0,0,.9051-4.2595,10.06537,10.06537,0,0,0-2.2301-5.8993,17.85731,17.85731,0,0,0-1.6985-1.6542,6.92308,6.92308,0,0,1,1.8525,1.5223,10.0255,10.0255,0,0,1,2.4439,6.0149,9.25377,9.25377,0,0,1-.8843,4.4642c-.6896,1.4827-1.7939,2.8872-2.1355,4.611-.3513,1.737.4714,3.5258,1.3616,5.2674a16.24085,16.24085,0,0,1,1.1797,2.8274,5.92613,5.92613,0,0,1,.01281,3.2044,28.56457,28.56457,0,0,1-1.11941,2.9293,24.693,24.693,0,0,0-.9453,2.8321,20.694,20.694,0,0,0-.73429,5.5721,14.42767,14.42767,0,0,0,2.94369,8.8744,12.33827,12.33827,0,0,0,5.0199,3.9145C516.56386,172.7748,517.42456,172.8611,517.41226,172.92Z"/><path class="cls-6" d="M516.41616,122.4589a7.02754,7.02754,0,0,1-1.4898.2222,15.52589,15.52589,0,0,1-4.11889-.1085,7.82687,7.82687,0,0,1-5.19661-3.1532,16.88821,16.88821,0,0,1-1.3648-3.3572,5.54125,5.54125,0,0,0-2.2779-2.8111c-2.1875-1.3867-4.762-1.5568-7.0135-1.8311a12.17753,12.17753,0,0,1-5.8288-1.8155,5.77287,5.77287,0,0,1-2.3862-3.3391,3.61241,3.61241,0,0,1-.0775-1.1279,1.116,1.116,0,0,1,.0816-.3851,7.31385,7.31385,0,0,0,.1925,1.4635,5.758,5.758,0,0,0,2.4004,3.0868,12.14979,12.14979,0,0,0,5.6737,1.6407c2.232.2516,4.8967.391,7.2403,1.8702a6.02647,6.02647,0,0,1,2.4713,3.0648,17.228,17.228,0,0,0,1.2923,3.2811,7.55422,7.55422,0,0,0,4.8636,3.0516,17.52755,17.52755,0,0,0,4.0362.2677A10.18175,10.18175,0,0,1,516.41616,122.4589Z"/><path class="cls-6" d="M513.93486,114.3153a3.05723,3.05723,0,0,1-1.1719.1723,7.16968,7.16968,0,0,1-5.0151-2.0028,9.50279,9.50279,0,0,1-1.55139-2.0699c-.90241-1.5207-1.76991-3.3966-3.63981-4.1723a11.95582,11.95582,0,0,0-5.6026-.4923,17.15395,17.15395,0,0,1-4.782-.0404,5.94659,5.94659,0,0,1-2.95059-1.3233,3.36964,3.36964,0,0,1-.58821-.6598c-.1123-.1682-.163-.2601-.1483-.2705.0413-.0321.2797.3214.8653.7738a6.15227,6.15227,0,0,0,2.8831,1.1167,18.03433,18.03433,0,0,0,4.6796-.0745,12.03252,12.03252,0,0,1,5.8543.494,5.7754,5.7754,0,0,1,2.3877,1.9832,26.57783,26.57783,0,0,1,1.4557,2.4231,9.36984,9.36984,0,0,0,1.441,2.0053,6.87616,6.87616,0,0,0,1.7194,1.2698,7.42666,7.42666,0,0,0,2.9965.8373C513.51176,114.3278,513.92886,114.2702,513.93486,114.3153Z"/><path class="cls-6" d="M520.39676,170.7622c-.0511-.023.2673-.6669.6365-1.8976a17.20531,17.20531,0,0,0,.6665-5.3601,16.46709,16.46709,0,0,0-2.1326-7.6356c-.7308-1.3096-1.84269-2.4764-2.7481-3.915a7.08393,7.08393,0,0,1-1.0072-2.4141,5.45768,5.45768,0,0,1,.2214-2.6993c.5605-1.7257,1.5651-3.1802,1.78121-4.7672.26779-1.5919-.53651-3.044-1.29731-4.3357a20.07045,20.07045,0,0,1-1.0711-1.9876,7.17537,7.17537,0,0,1-.5655-2.0878,18.508,18.508,0,0,1,.1132-3.8131,10.08942,10.08942,0,0,0-.4738-5.3142,4.83434,4.83434,0,0,0-1.18049-1.5653c.00509-.0075.04569.0119.12109.0576a1.96856,1.96856,0,0,1,.3186.228,3.69363,3.69363,0,0,1,.9231,1.1911,9.90255,9.90255,0,0,1,.6584,5.434,18.79148,18.79148,0,0,0-.0515,3.7291,9.48475,9.48475,0,0,0,1.621,3.884,13.15462,13.15462,0,0,1,1.08831,2.1251,5.046,5.046,0,0,1,.30139,2.5246c-.2435,1.7495-1.2739,3.2292-1.7901,4.8546a4.95352,4.95352,0,0,0-.2084,2.4483,6.61855,6.61855,0,0,0,.9312,2.2389c.8578,1.3821,1.9753,2.5717,2.7301,3.9439a16.51178,16.51178,0,0,1,2.0852,7.867,16.19438,16.19438,0,0,1-.84139,5.4303,11.80958,11.80958,0,0,1-.57561,1.3807A1.96182,1.96182,0,0,1,520.39676,170.7622Z"/><path class="cls-5" d="M479.66266,357.0878s-6.7349-63.8423-7.1216-87.4327,10.6063-46.8662,10.6063-46.8662l43.0834-1.8217s8.5155,23.9357,8.668,33.9895c.2964,19.5385-5.1914,38.8334-4.5588,54.3326l1.4402,47.7985"/><path class="cls-10" d="M533.22186,278.6025a5.6859,5.6859,0,0,1-.7032.5326q-.1806.12765-.3926.2772c-.1345.1141-.2659.2583-.4171.4029a6.41941,6.41941,0,0,0-.9598,1.0745c-1.3916,1.7039-2.4059,4.7478-3.3705,8.5452a28.78,28.78,0,0,1-2.181,6.0737,10.95663,10.95663,0,0,1-.9567,1.512c-.1869.2399-.3568.4974-.5626.7279l-.6634.6626a10.72189,10.72189,0,0,1-3.2403,2.0788c-2.4117,1.0573-5.1344,1.5587-7.6209,2.8063a12.03913,12.03913,0,0,0-5.5296,6.3032c-1.2129,2.7093-1.9489,5.5543-2.961,8.21a14.87676,14.87676,0,0,1-4.4975,6.8206,12.347,12.347,0,0,1-7.0503,2.2098c-2.3197.1352-4.4681.0685-6.3943.3602a10.09752,10.09752,0,0,0-4.82259,1.8198,6.72134,6.72134,0,0,0-2.24091,3.1554,4.72955,4.72955,0,0,0-.1669,2.452c.1109.5616.2692.8304.234.8445a2.55,2.55,0,0,1-.33619-.8204,4.64837,4.64837,0,0,1,.07529-2.5358,6.85213,6.85213,0,0,1,2.25271-3.323,10.30677,10.30677,0,0,1,4.94989-1.9566c1.9619-.3203,4.1337-.2741,6.4199-.427a11.95951,11.95951,0,0,0,6.78821-2.1603,14.46957,14.46957,0,0,0,4.31169-6.6202c.9947-2.6252,1.7257-5.4745,2.9632-8.243a12.52235,12.52235,0,0,1,5.7736-6.5441c2.5863-1.284,5.3099-1.7699,7.6609-2.7917a10.291,10.291,0,0,0,3.1193-1.9739l.6368-.6265c.1983-.2189.36251-.4658.5436-.6943a10.58341,10.58341,0,0,0,.9342-1.4516,28.92038,28.92038,0,0,0,2.2061-5.9673c1.0073-3.7772,2.0938-6.87,3.5659-8.5716a6.31146,6.31146,0,0,1,1.01471-1.0635c.15949-.1412.29879-.2812.44069-.3906l.41331-.2611A5.56018,5.56018,0,0,1,533.22186,278.6025Z"/><path class="cls-10" d="M533.48756,249.0588a5.22806,5.22806,0,0,1,.0556.8551,10.5671,10.5671,0,0,1-.2986,2.4427,15.79593,15.79593,0,0,1-4.86709,7.5255,28.88329,28.88329,0,0,1-5.04581,3.6853c-1.9301,1.1459-4.0598,2.2361-6.2417,3.4688a32.63915,32.63915,0,0,0-6.3858,4.4901,24.67321,24.67321,0,0,0-4.8366,6.7974,62.69351,62.69351,0,0,1-4.1945,7.3892,17.64923,17.64923,0,0,1-2.7341,3.0241,17.27371,17.27371,0,0,1-3.2521,2.166,40.28952,40.28952,0,0,1-6.6946,2.5662c-2.13779.6614-4.1314,1.2463-5.8751,1.9766a22.99439,22.99439,0,0,0-4.481,2.4001,13.96108,13.96108,0,0,0-2.81269,2.5937,13.41418,13.41418,0,0,0-1.68771,2.8051,5.22455,5.22455,0,0,1,.2779-.8111,9.94087,9.94087,0,0,1,1.2501-2.119,13.68523,13.68523,0,0,1,2.8024-2.705,22.72466,22.72466,0,0,1,4.5085-2.5033c1.7574-.7616,3.7619-1.3715,5.888-2.0491a40.59232,40.59232,0,0,0,6.601-2.579,16.89,16.89,0,0,0,3.1511-2.1183,17.24955,17.24955,0,0,0,2.6441-2.9448,63.557,63.557,0,0,0,4.1489-7.3361,25.00284,25.00284,0,0,1,4.9462-6.9237,32.74769,32.74769,0,0,1,6.5004-4.5371c2.2015-1.2284,4.3342-2.3022,6.2588-3.4233a29.01234,29.01234,0,0,0,5.0159-3.5846,15.93911,15.93911,0,0,0,4.9196-7.3057A15.51079,15.51079,0,0,0,533.48756,249.0588Z"/><path class="cls-10" d="M472.75866,273.0365c-.0084.0033-.0377-.0619-.0874-.1936a4.28822,4.28822,0,0,1-.0935-2.9928c.5562-2.036,2.7676-4.5699,6.3329-5.8391,1.7731-.6092,3.7854-.9768,5.88181-1.5258a11.02125,11.02125,0,0,0,8.15049-6.0647,30.75694,30.75694,0,0,0,1.4932-3.5925,39.0881,39.0881,0,0,1,3.1707-7.6682,12.24472,12.24472,0,0,1,6.5234-5.0721,59.77467,59.77467,0,0,1,7.4848-1.8965,24.78093,24.78093,0,0,0,6.5088-2.2163,13.63861,13.63861,0,0,0,4.4047-3.9675,14.878,14.878,0,0,0,2.7985-8.1008,23.06408,23.06408,0,0,0-.2125-3.1959,10.54961,10.54961,0,0,1,.4152,3.2001,14.77178,14.77178,0,0,1-2.7011,8.3099,13.91018,13.91018,0,0,1-4.4943,4.1313,24.93021,24.93021,0,0,1-6.6123,2.307,60.8089,60.8089,0,0,0-7.4141,1.9069,11.76164,11.76164,0,0,0-6.2599,4.8706,39.21572,39.21572,0,0,0-3.1312,7.5627,30.90806,30.90806,0,0,1-1.5327,3.6509,11.43288,11.43288,0,0,1-8.48269,6.2529c-2.12631.5367-4.12721.881-5.87481,1.4575-3.4676,1.1836-5.6685,3.6115-6.2553,5.5495a4.89324,4.89324,0,0,0-.1911,2.3168A8.29019,8.29019,0,0,1,472.75866,273.0365Z"/><path class="cls-10" d="M529.78216,327.0186a2.84266,2.84266,0,0,1,.06931.6276,6.663,6.663,0,0,1-.18411,1.8054,10.26687,10.26687,0,0,1-3.78,5.4026,16.83639,16.83639,0,0,1-3.9653,2.3545,52.62555,52.62555,0,0,1-4.9784,1.7216,41.119,41.119,0,0,0-5.4085,1.9747,15.62425,15.62425,0,0,0-4.922,3.5901c-1.459,1.5281-2.71769,3.1972-4.1143,4.671a18.81169,18.81169,0,0,1-4.6086,3.6064,20.24178,20.24178,0,0,1-9.51,2.4731,18.83149,18.83149,0,0,1-6.5455-1.0876,11.98959,11.98959,0,0,1-1.6609-.7121,2.83335,2.83335,0,0,1-.5507-.3048,2.88722,2.88722,0,0,1,.59431.2094,16.0159,16.0159,0,0,0,1.68239.6156,19.73254,19.73254,0,0,0,6.474.9113,20.207,20.207,0,0,0,9.2824-2.5239,18.525,18.525,0,0,0,4.4714-3.5374c1.3676-1.4518,2.6211-3.1209,4.1092-4.681a16.02256,16.02256,0,0,1,5.0801-3.6913,40.52726,40.52726,0,0,1,5.4856-1.9722c1.76791-.5371,3.4481-1.0368,4.9522-1.661a16.77205,16.77205,0,0,0,3.9048-2.2457,10.31144,10.31144,0,0,0,3.8118-5.165A11.8075,11.8075,0,0,0,529.78216,327.0186Z"/><path class="cls-7" d="M524.87166,194.4636l-8.3305.1974a13.60843,13.60843,0,0,1-1.884,4.7257c-6.9659-12.0918-12.367-28.2923-13.7079-34.8031.1954-.6504.4266-1.3697.7156-2.174a9.23955,9.23955,0,0,0-.1099-3.6614c-.2338-1.4497-.6392-3.4-.7611-4.303-.371-2.7509-.8142-3.1832-1.7739-2.872-1.3053.4232.5351,7.7263-.5347,7.8848-.5749.0852-1.2777-2.4169-1.4817-4.47-.20409-2.0529-1.1324-8.3681-1.8108-8.7889-.9949-.6171-1.862.3589-1.6106,2.4034.2542,2.0694.575,8.2397-.51,8.3229-1.069.0824-1.9664-10.3875-1.9664-10.3875s.169-2.2782-1.08729-2.2235c-2.26571.0984-.49541,11.1365-.30141,12.182.1356.7274-1.04159.8606-1.1449.0714-.1065-.8126-.6534-10.4704-2.9601-10.3926-1.7707.0597,1.37141,9.0959.3775,11.1907-.9943,2.0943-1.6848-7.1141-3.3755-6.9874-.629.0476-1.0943.1706.0622,5.3817a117.51911,117.51911,0,0,0,4.0424,12.2144c2.679,14.4498,14.4369,60.676,32.8704,52.2143,10.3146-4.7347,14.4995-25.7204,14.4995-25.7204Z"/><path class="cls-8" d="M489.32366,157.2045a.56558.56558,0,0,0,.2395-.0332.53441.53441,0,0,0,.3762-.5777c-.0236-.6203-.121-1.5247-.2645-2.6941a38.55023,38.55023,0,0,1-.4602-4.2605c-.0136-.8373.0079-1.7369.0563-2.6908a9.27646,9.27646,0,0,1,.1453-1.4401c.0785-.4528.3817-.9711.7315-.9091l.0384.0068.0172-.0008c.3558-.0164.6339.2607.74811.6846a3.92341,3.92341,0,0,1,.13089,1.3387l-.00089.0189.00119.0133a80.9184,80.9184,0,0,0,1.0691,8.3491c.0805.3735.1638.7496.27971,1.1288a5.48675,5.48675,0,0,0,.20809.5728,1.77505,1.77505,0,0,0,.17.2964.544.544,0,0,0,.41791.2624.748.748,0,0,0,.62929-.525,3.08314,3.08314,0,0,0,.1871-.6149,9.38949,9.38949,0,0,0,.1608-1.2206,36.469,36.469,0,0,0-.0668-5.002,11.49925,11.49925,0,0,1-.1042-2.5047,1.385,1.385,0,0,1,.4921-.9331.53993.53993,0,0,1,.43-.0543.98726.98726,0,0,1,.2376.1028.32338.32338,0,0,1,.1103.1474,12.50066,12.50066,0,0,1,.6937,2.5138c.1774.8851.3308,1.7869.4723,2.6986.1406.9117.26981,1.835.3785,2.7647a19.26752,19.26752,0,0,0,.4609,2.8445,9.6702,9.6702,0,0,0,.4511,1.4132,2.568,2.568,0,0,0,.4121.7068.59375.59375,0,0,0,.5987.2179.64019.64019,0,0,0,.4081-.4487,4.92566,4.92566,0,0,0,.1059-1.5561c-.0213-.4963-.0626-.9868-.1042-1.4773-.0715-.842-.1518-1.6754-.1805-2.4964a8.40856,8.40856,0,0,1,.03-1.2031,1.91692,1.91692,0,0,1,.1215-.5215.44834.44834,0,0,1,.0962-.1487c.0158-.0165.0256-.0089.0388-.0254l.1298-.0369c.6633-.2741.8836.649,1.0601,1.3929.1537.7756.2512,1.5768.4073,2.3658.2633,1.5753.59951,3.14.7751,4.6448a5.37341,5.37341,0,0,1-.0875,2.1521q-.3549,1.0845-.702,2.1452l-.0212.0642.0152.0671a115.58224,115.58224,0,0,0,4.4744,14.4592c1.5832,4.267,3.1657,7.9547,4.5632,10.9703,1.3927,3.0187,2.6428,5.3442,3.5059,6.9306.4378.7522.7836,1.3464,1.0406,1.7881a4.25034,4.25034,0,0,0,.3863.6007,4.26044,4.26044,0,0,0-.3074-.6453c-.23809-.4514-.5584-1.0585-.9639-1.8271-.8126-1.6101-2.0134-3.9533-3.3605-6.9844-1.35169-3.0276-2.8921-6.7221-4.4386-10.9897a118.78749,118.78749,0,0,1-4.3749-14.4106l-.0058.1311q.3462-1.04625.70061-2.1162a5.80755,5.80755,0,0,0,.12309-2.3928c-.1792-1.564-.5058-3.0835-.76709-4.6659-.15411-.7823-.24921-1.5853-.41041-2.4049a4.71835,4.71835,0,0,0-.4077-1.238,1.203,1.203,0,0,0-.5523-.5562,1.22693,1.22693,0,0,0-.7888-.0317l-.16779.0475a.88387.88387,0,0,0-.22721.1288.978.978,0,0,0-.253.3557,2.44093,2.44093,0,0,0-.1663.6826,8.94255,8.94255,0,0,0-.0346,1.2903c.0295.8479.1106,1.6869.1818,2.5264.0415.4882.0822.9739.1029,1.4531a4.665,4.665,0,0,1-.074,1.3439c-.025.105-.0743.0851-.0174.1362l.0024.0046c-.0049-.0338.0081.0507.0056.0369l-.0016-.0101a.07865.07865,0,0,1,.003-.0347c.0053-.0086.0272-.0437.014-.0464a.16063.16063,0,0,1-.05959-.0551,2.11626,2.11626,0,0,1-.30561-.542,9.16813,9.16813,0,0,1-.4239-1.3275,18.77072,18.77072,0,0,1-.45149-2.7722c-.11151-.9409-.243-1.8681-.38651-2.7862-.14449-.9178-.3009-1.8256-.483-2.7223a12.42881,12.42881,0,0,0-.7602-2.6705.89923.89923,0,0,0-.3137-.3515,1.531,1.531,0,0,0-.3725-.1568,1.08729,1.08729,0,0,0-.8455.1174,1.87423,1.87423,0,0,0-.739,1.3015,4.75155,4.75155,0,0,0-.01659,1.3704c.05009.4271.09119.8454.12459,1.2677a36.3128,36.3128,0,0,1,.0906,4.9251,8.90038,8.90038,0,0,1-.1448,1.1552,2.63011,2.63011,0,0,1-.1519.5179.67629.67629,0,0,1-.1093.187c-.0365.0833-.0685-.0192-.0648.1161.0508-.1027.0018-.0456-.0371-.1318a1.36419,1.36419,0,0,1-.11929-.2072,5.09144,5.09144,0,0,1-.18911-.5128c-.1113-.3549-.1956-.7226-.2765-1.0864a83.20648,83.20648,0,0,1-1.1303-8.2848l.0001.0317a4.28439,4.28439,0,0,0-.1634-1.4868,1.50563,1.50563,0,0,0-.3909-.666,1.03489,1.03489,0,0,0-.7411-.2706l.0553.006a.86477.86477,0,0,0-.8622.4133,2.1591,2.1591,0,0,0-.3072.7766,9.45444,9.45444,0,0,0-.134,1.5027c-.0353.9615-.0431,1.8669-.0152,2.7132a35.744,35.744,0,0,0,.5516,4.2806c.1741,1.1621.30391,2.0637.3603,2.6718a.47433.47433,0,0,1-.292.5236C489.404,157.1834,489.32106,157.1924,489.32366,157.2045Z"/><path class="cls-7" d="M424.19806,208.2318a21.48354,21.48354,0,0,0-5.7925.6644c-5.16409,1.359-14.07909,6.7612-14.4484,13.4356h6.4745s-3.626,7.7187-2.5603,7.0039c2.7645-1.8543,8.2683-7.447,8.2683-7.447Z"/><path class="cls-5" d="M512.52447,92.0438c-.14321.0126-.73091-5.3412-1.31251-11.9564-.5818-6.6176-.9371-11.9906-.7938-12.0032.1432-.0126.7308,5.34,1.3126,11.9576C512.31226,86.6571,512.66776,92.0312,512.52447,92.0438Z"/><path class="cls-5" d="M540.932,68.411c.1172.0834-4.2577,6.433-9.7703,14.1805-5.5145,7.7501-10.0785,13.9632-10.1957,13.8798-.1171-.0834,4.2569-6.4316,9.7714-14.1818C536.24986,74.5421,540.81486,68.3277,540.932,68.411Z"/><path class="cls-5" d="M552.73476,97.1885c.0289.1409-5.0766,1.3092-11.4021,2.6092-6.3277,1.3005-11.4791,2.2402-11.5081,2.0993-.0289-.1408,5.0755-1.3089,11.4033-2.6094C547.55336,97.9876,552.70586,97.0477,552.73476,97.1885Z"/></g><g id="Folder"><path class="cls-4" d="M212.62486,234.544l-35.361,181.799-4.6292,23.7994,236.06319-1.1647c10.5938-.0522,19.983-9.4589,23.3915-23.4349l41.8592-171.6368c2.5875-10.6095-3.0904-21.6445-11.1325-21.6361l-238.9229.2514C218.61786,222.5268,214.00506,227.4485,212.62486,234.544Z"/><g class="cls-11"><path d="M212.62486,234.544l-35.361,181.799-4.6292,23.7994,236.06319-1.1647c10.5938-.0522,19.983-9.4589,23.3915-23.4349l41.8592-171.6368c2.5875-10.6095-3.0904-21.6445-11.1325-21.6361l-238.9229.2514C218.61786,222.5268,214.00506,227.4485,212.62486,234.544Z"/></g><path class="cls-4" d="M386.05356,404.0258,361.06,202.6181c-1.0242-8.2525-7.5981-14.4085-15.3597-14.3831l-54.8063.1792a14.93436,14.93436,0,0,0-10.8268,4.8005l-26.02469,27.6647-152.4261.7951c-9.3146.0486-16.4708,8.8623-15.2363,18.7654L109.586,426.5925c1.0273,8.2406,7.5888,14.3887,15.3398,14.3734l265.64679-.5249c29.58691.6131,32.4113-8.1249,32.4113-8.1249C389.07656,439.8307,386.05686,404.049,386.05356,404.0258Z"/><g class="cls-11"><polygon class="cls-12" points="271.509 363.717 262.549 373.339 193.547 311.265 202.506 301.642 271.509 363.717"/><polygon class="cls-12" points="258.795 299.509 268.696 308.416 206.261 375.473 196.359 366.565 258.795 299.509"/></g></g><g id="Speech_Bubble" data-name="Speech Bubble"><path class="cls-4" d="M423.98666,103.7847a1.86824,1.86824,0,0,1-1.1306-1.6362l-.3994-9.2835a1.86474,1.86474,0,0,1,2.2926-1.8961,5.795,5.795,0,0,0,4.515-.8924,5.21871,5.21871,0,0,0,2.3344-3.4186,5.34176,5.34176,0,0,0-1.1223-4.0155,5.95713,5.95713,0,0,0-3.9406-2.3729,6.99219,6.99219,0,0,0-7.0987,5.0379,1.8658,1.8658,0,1,1-3.601-.9786,10.7506,10.7506,0,0,1,11.1279-7.7667,9.62623,9.62623,0,0,1,6.4891,3.8305,9.08076,9.08076,0,0,1,1.829,6.8662,8.95476,8.95476,0,0,1-3.946,5.9218,9.76408,9.76408,0,0,1-5.0602,1.6525l.3095,7.1556a1.86772,1.86772,0,0,1-2.5987,1.796Z"/><path class="cls-4" d="M426.72176,107.5772a1.52639,1.52639,0,1,1-1.6275-1.4182A1.52648,1.52648,0,0,1,426.72176,107.5772Z"/><path class="cls-5" d="M391.85286,90.6939a3.982,3.982,0,0,0,.0902-.6089c.0473-.4348.1129-1.0272.1962-1.7878a21.08574,21.08574,0,0,1,.4835-2.8744c.1316-.5602.2002-1.1828.4052-1.8129q.29265-.9504.6203-2.0193a34.3897,34.3897,0,0,1,4.97321-9.5265,33.533,33.533,0,0,1,30.99889-13.0524c.76711.0734,1.5222.2783,2.2929.4125a15.56419,15.56419,0,0,1,2.3008.5551,31.77417,31.77417,0,0,1,8.9439,4.0534A33.45871,33.45871,0,0,1,456.376,80.632a32.64981,32.64981,0,0,1,1.9603,11.4084,32.05225,32.05225,0,0,1-2.0922,11.7416l-.4509,1.1419-.0594.1509.0611.141c2.5083,5.7773,4.9677,11.4426,7.3513,16.9327l.4206-.4777c-5.1642-1.9845-10.1717-3.9083-14.9758-5.7541l-.1853-.0711-.1454.1409a33.4891,33.4891,0,0,1-14.1423,8.1648,33.26894,33.26894,0,0,1-27.0001-4.1909,34.26656,34.26656,0,0,1-8.4322-7.8518,33.17711,33.17711,0,0,1-6.3976-15.3338q-.1773-1.46415-.3143-2.6006-.02955-1.122-.05-1.911c-.01629-.4914-.0289-.8786-.0385-1.1712a2.121,2.121,0,0,0-.0324-.3981,2.18248,2.18248,0,0,0-.024.397c-.0038.293-.009.6804-.0153,1.1736q-.00163.7941-.0034,1.9219.11565,1.14465.2645,2.6224a36.41177,36.41177,0,0,0,1.709,7.0623,36.81521,36.81521,0,0,0,4.585,8.4997,34.51744,34.51744,0,0,0,8.4923,8.0191,33.67893,33.67893,0,0,0,27.4099,4.3761,34.021,34.021,0,0,0,14.4264-8.2814l-.3306.0698c4.8015,1.8532,9.8055,3.7849,14.9677,5.7774l.7546.2915-.33349-.769c-2.38061-5.492-4.837-11.1585-7.34211-16.9369l.0016.2911.4613-1.1665a32.75054,32.75054,0,0,0,2.1359-12.0041,33.33218,33.33218,0,0,0-2.01469-11.6578,34.04961,34.04961,0,0,0-13.51-16.908,32.30131,32.30131,0,0,0-9.11721-4.0998,16.03539,16.03539,0,0,0-2.3422-.5561c-.7844-.134-1.5531-.3389-2.333-.4108a33.54132,33.54132,0,0,0-36.2968,23.096q-.31468,1.0818-.5951,2.0454c-.1966.6375-.2563,1.2669-.3779,1.8328a19.883,19.883,0,0,0-.4219,2.9012c-.0553.7654-.0977,1.3627-.1296,1.8001A4.06683,4.06683,0,0,0,391.85286,90.6939Z"/></g></g></svg>