<?xml version="1.0" encoding="utf-8"?>
<!-- Generator: Adobe Illustrator 26.5.0, SVG Export Plug-In . SVG Version: 6.00 Build 0)  -->
<svg version="1.1" id="Layer_1" xmlns="http://www.w3.org/2000/svg" xmlns:xlink="http://www.w3.org/1999/xlink" x="0px" y="0px"
	 viewBox="0 0 512 512" style="enable-background:new 0 0 512 512;" xml:space="preserve">
<style type="text/css">
	.st0{fill:#0E1F7F;}
</style>
<g id="XMLID_1_">
	<path class="st0" d="M89.09,207.58c0-71.97,39.64-142.04,119.08-142.04c80.31,0,120.83,68.32,120.83,142.04
		c0,72.85-35.99,142.04-120.83,142.04C125.07,349.62,89.09,278.53,89.09,207.58L89.09,207.58z M15.21,207.58
		c0,122.73,70.07,208.46,192.8,208.46c123.61,0,194.71-85.72,194.71-208.46C402.72,88.5,330.75,0,208.02,0
		C86.31,0,15.21,88.5,15.21,207.58L15.21,207.58z"/>
	<path id="XMLID_2_" class="st0" d="M385.17,512v-28.53c14.77-13.9,71.97-61.88,71.97-92.31c0-15.65-13.9-23.11-26.77-23.11
		c-14.77,0-28.53,6.44-39.64,13.9l-2.78-28.53c15.65-7.31,33.21-12,50.76-12c31.31,0,51.64,16.53,51.64,49.88
		c0,35.11-35.99,68.32-62.76,94.06h69.19V512H385.17L385.17,512z"/>
</g>
</svg>
