<svg width="41" height="41" viewBox="0 0 41 41" fill="none" xmlns="http://www.w3.org/2000/svg">
<path d="M33.3125 0C29.0764 0 25.625 3.45137 25.625 7.6875C25.625 11.9236 29.0764 15.375 33.3125 15.375C37.5486 15.375 41 11.9236 41 7.6875C41 3.45137 37.5486 0 33.3125 0ZM33.3125 10.25C31.8951 10.25 30.75 9.10488 30.75 7.6875C30.75 6.27012 31.8951 5.125 33.3125 5.125C34.7299 5.125 35.875 6.27012 35.875 7.6875C35.875 9.10488 34.7299 10.25 33.3125 10.25ZM20.5 8.96875C20.5 4.01191 16.4881 0 11.5312 0C6.57441 0 2.5625 4.01191 2.5625 8.96875V22.3018C0.984961 24.2797 0 26.7461 0 29.4688C0 35.835 5.16504 41 11.5312 41C17.8975 41 23.0625 35.835 23.0625 29.4688C23.0625 26.7461 22.0775 24.2717 20.5 22.3018V8.96875ZM11.5312 35.875C7.9998 35.875 5.125 33.0002 5.125 29.4688C5.125 27.4268 6.10195 25.5529 7.6875 24.3598V8.96875C7.6875 6.84668 9.40918 5.125 11.5312 5.125C13.6533 5.125 15.375 6.84668 15.375 8.96875V24.3598C16.9605 25.5449 17.9375 27.4268 17.9375 29.4688C17.9375 33.0002 15.0627 35.875 11.5312 35.875ZM12.8125 25.8572V24.3438C12.8125 23.6391 12.2359 23.0625 11.5312 23.0625C10.8266 23.0625 10.25 23.6391 10.25 24.3438V25.8572C8.76055 26.3857 7.6875 27.7951 7.6875 29.4688C7.6875 31.5908 9.40918 33.3125 11.5312 33.3125C13.6533 33.3125 15.375 31.5908 15.375 29.4688C15.375 27.7951 14.302 26.3857 12.8125 25.8572Z" fill="#173278"/>
</svg>
