<svg width="116" height="116" viewBox="0 0 116 116" fill="none" xmlns="http://www.w3.org/2000/svg">
<path d="M58 0C25.9597 0 0 25.9597 0 58C0 90.0403 25.9597 116 58 116C90.0403 116 116 90.0403 116 58C116 25.9597 90.0403 0 58 0ZM58 22.4516C69.3661 22.4516 78.5806 31.6661 78.5806 43.0323C78.5806 54.3984 69.3661 63.6129 58 63.6129C46.6339 63.6129 37.4194 54.3984 37.4194 43.0323C37.4194 31.6661 46.6339 22.4516 58 22.4516ZM58 102.903C44.2718 102.903 31.9702 96.6823 23.7379 86.9532C28.1347 78.6742 36.7411 72.9677 46.7742 72.9677C47.3355 72.9677 47.8968 73.0613 48.4347 73.225C51.475 74.2073 54.6556 74.8387 58 74.8387C61.3444 74.8387 64.5484 74.2073 67.5653 73.225C68.1032 73.0613 68.6645 72.9677 69.2258 72.9677C79.2589 72.9677 87.8653 78.6742 92.2621 86.9532C84.0298 96.6823 71.7282 102.903 58 102.903Z" fill="white"/>
</svg>
